<svg width="817" height="220" viewBox="0 0 817 220" fill="none" xmlns="http://www.w3.org/2000/svg">
<path d="M8 93.5L56 0L786.5 18.5L763 80L816.5 180.5H652.5C538.9 180.5 484.833 198.167 472 207L23 180.5V138.5L8 93.5Z" fill="#917800"/>
<path d="M3 102.403L49.7236 8L760.798 26.6787L737.923 88.7729L790 190.244H630.361C519.782 190.244 467.153 208.081 454.661 217L17.6011 190.244V147.838L3 102.403Z" stroke="black" stroke-width="5" stroke-dasharray="10 10"/>
<path d="M159.05 147.35C152.6 147.35 146.875 145.925 141.875 143.075C136.875 140.225 132.925 136.175 130.025 130.925C127.175 125.625 125.75 119.3 125.75 111.95V84.65C125.75 77.3 127.175 71 130.025 65.75C132.925 60.45 136.875 56.375 141.875 53.525C146.875 50.675 152.6 49.25 159.05 49.25C165.5 49.25 171.225 50.675 176.225 53.525C181.275 56.375 185.225 60.45 188.075 65.75C190.925 71 192.35 77.3 192.35 84.65V111.95C192.35 119.15 190.975 125.4 188.225 130.7C185.475 136 181.6 140.1 176.6 143C171.6 145.9 165.75 147.35 159.05 147.35ZM159.05 141.05C167.45 141.05 174.05 138.475 178.85 133.325C183.65 128.125 186.05 121 186.05 111.95V84.65C186.05 75.7 183.725 68.625 179.075 63.425C174.425 58.175 167.75 55.55 159.05 55.55C150.65 55.55 144.05 58.125 139.25 63.275C134.45 68.425 132.05 75.55 132.05 84.65V111.95C132.05 121 134.45 128.125 139.25 133.325C144.05 138.475 150.65 141.05 159.05 141.05ZM214.733 50.6H265.583C268.583 50.6 270.083 51.65 270.083 53.75C270.083 55.85 268.583 56.9 265.583 56.9H221.033V76.85H243.983C249.983 76.85 255.308 78.45 259.958 81.65C264.658 84.85 268.333 89.125 270.983 94.475C273.683 99.825 275.033 105.7 275.033 112.1C275.033 118.5 273.708 124.35 271.058 129.65C268.408 134.95 264.733 139.175 260.033 142.325C255.383 145.475 250.033 147.05 243.983 147.05H217.583C215.683 147.05 214.733 145.5 214.733 142.4V50.6ZM243.983 83.15H221.033V140.75H243.983C249.183 140.75 253.633 139.425 257.333 136.775C261.033 134.125 263.858 130.625 265.808 126.275C267.758 121.875 268.733 117.1 268.733 111.95C268.733 106.8 267.758 102.05 265.808 97.7C263.858 93.3 261.033 89.775 257.333 87.125C253.633 84.475 249.183 83.15 243.983 83.15ZM325.31 147.35C318.86 147.35 313.135 145.925 308.135 143.075C303.135 140.225 299.185 136.175 296.285 130.925C293.435 125.625 292.01 119.3 292.01 111.95V84.65C292.01 77.3 293.435 71 296.285 65.75C299.185 60.45 303.135 56.375 308.135 53.525C313.135 50.675 318.86 49.25 325.31 49.25C331.76 49.25 337.485 50.675 342.485 53.525C347.535 56.375 351.485 60.45 354.335 65.75C357.185 71 358.61 77.3 358.61 84.65V111.95C358.61 119.15 357.235 125.4 354.485 130.7C351.735 136 347.86 140.1 342.86 143C337.86 145.9 332.01 147.35 325.31 147.35ZM325.31 141.05C333.71 141.05 340.31 138.475 345.11 133.325C349.91 128.125 352.31 121 352.31 111.95V84.65C352.31 75.7 349.985 68.625 345.335 63.425C340.685 58.175 334.01 55.55 325.31 55.55C316.91 55.55 310.31 58.125 305.51 63.275C300.71 68.425 298.31 75.55 298.31 84.65V111.95C298.31 121 300.71 128.125 305.51 133.325C310.31 138.475 316.91 141.05 325.31 141.05ZM418.713 147.05C416.613 147.05 415.563 145.55 415.563 142.55V54.2C415.563 51.1 416.513 49.55 418.413 49.55C419.913 49.55 421.213 50.4 422.313 52.1L450.363 94.7L478.563 52.1C479.663 50.4 480.913 49.55 482.313 49.55C484.313 49.55 485.313 51.1 485.313 54.2V142.55C485.313 145.55 484.263 147.05 482.163 147.05C480.063 147.05 479.013 145.55 479.013 142.55V62.45L452.988 102.2C452.488 103 452.038 103.525 451.638 103.775C451.288 104.025 450.913 104.15 450.513 104.15C450.163 104.15 449.763 104.025 449.313 103.775C448.913 103.525 448.438 103 447.888 102.2L421.863 62.45V142.55C421.863 145.55 420.813 147.05 418.713 147.05ZM513.635 147.05C511.535 147.05 510.485 145.55 510.485 142.55V54.2C510.485 51.1 511.435 49.55 513.335 49.55C515.635 49.55 516.785 51.1 516.785 54.2V91.4H570.785V54.2C570.785 51.1 571.835 49.55 573.935 49.55C576.035 49.55 577.085 51.1 577.085 54.2V142.55C577.085 145.55 576.035 147.05 573.935 147.05C571.835 147.05 570.785 145.55 570.785 142.55V97.7H516.785V142.55C516.785 145.55 515.735 147.05 513.635 147.05ZM605.18 146C603.28 146 602.33 144.45 602.33 141.35V55.25C602.33 52.15 603.28 50.6 605.18 50.6H664.58C667.48 50.6 668.93 51.75 668.93 54.05C668.93 55.95 667.48 56.9 664.58 56.9H608.63V89.15H646.88C649.88 89.15 651.38 90.3 651.38 92.6C651.38 94.5 649.88 95.45 646.88 95.45H608.63V139.7H664.58C667.48 139.7 668.93 140.85 668.93 143.15C668.93 145.05 667.48 146 664.58 146H605.18Z" fill="black"/>
</svg>
