<svg width="392" height="113" viewBox="0 0 392 113" fill="none" xmlns="http://www.w3.org/2000/svg">
<path d="M34.3143 10.7885C30.2669 16.5469 13.8105 8.92204 4.2099 3.32552C3.42066 2.86544 2.45857 3.60499 2.70954 4.48339L12.9341 40.2695C12.9774 40.421 12.9843 40.5806 12.9542 40.7353L2.15396 96.2092C2.06409 96.6708 2.308 97.1327 2.7399 97.3187L34.3106 110.918C34.4356 110.972 34.5702 111 34.7062 111H363.478C363.805 111 364.111 110.84 364.298 110.572L390.14 73.5162C390.36 73.2007 390.38 72.787 390.19 72.4521L358.287 16.0079C358.11 15.6941 357.777 15.5 357.417 15.5H277H116.11C116.037 15.5 115.964 15.492 115.892 15.476L55.8041 2.06786C55.6061 2.02367 55.3993 2.04078 55.2112 2.11691L34.8146 10.3726C34.6106 10.4552 34.4409 10.6084 34.3143 10.7885Z" fill="#917800" stroke="black" stroke-width="3" stroke-linecap="round"/>
<path d="M79.6 75.15C76.8333 75.15 74.5917 74.8833 72.875 74.35C71.1583 73.8167 69.9 72.9 69.1 71.6C68.3167 70.3 67.925 68.4917 67.925 66.175V60.775C67.925 58.4583 68.3167 56.65 69.1 55.35C69.9 54.0333 71.1583 53.1167 72.875 52.6C74.5917 52.0667 76.8333 51.8 79.6 51.8H86.75C88.0667 51.8 89.1 52.0417 89.85 52.525C90.6167 52.9917 91.15 53.6417 91.45 54.475C91.7667 55.2917 91.925 56.225 91.925 57.275C91.925 58.0917 91.7917 58.7 91.525 59.1C91.275 59.5 90.8833 59.7 90.35 59.7C89.7833 59.7 89.375 59.4917 89.125 59.075C88.8917 58.6417 88.775 58.15 88.775 57.6C88.775 56.7333 88.625 56.075 88.325 55.625C88.025 55.175 87.35 54.95 86.3 54.95H79.6C77.3333 54.95 75.5833 55.0833 74.35 55.35C73.1167 55.6167 72.2583 56.175 71.775 57.025C71.3083 57.8583 71.075 59.1333 71.075 60.85V66.1C71.075 67.7667 71.3083 69.025 71.775 69.875C72.2417 70.7083 73.0833 71.275 74.3 71.575C75.5333 71.8583 77.3 72 79.6 72H86.3C87.3667 72 88.0333 71.7833 88.3 71.35C88.5833 70.9167 88.7417 70.2583 88.775 69.375C88.8083 68.6583 88.9583 68.125 89.225 67.775C89.4917 67.425 89.8667 67.25 90.35 67.25C90.85 67.25 91.2333 67.4417 91.5 67.825C91.7833 68.2083 91.925 68.825 91.925 69.675C91.925 70.7917 91.7583 71.7583 91.425 72.575C91.0917 73.3917 90.5417 74.025 89.775 74.475C89.0083 74.925 87.9667 75.15 86.65 75.15H79.6ZM98.3125 75.15V51.8H114.038C116.488 51.8 118.479 52.35 120.013 53.45C121.546 54.55 122.313 56.175 122.313 58.325C122.313 59.625 122.071 60.65 121.588 61.4C121.104 62.1333 120.429 62.725 119.563 63.175C121.396 64.425 122.313 66.1833 122.313 68.45C122.313 69.9333 121.963 71.175 121.263 72.175C120.563 73.1583 119.588 73.9 118.338 74.4C117.104 74.9 115.671 75.15 114.038 75.15H98.3125ZM101.463 72H113.688C117.338 72 119.163 71.025 119.163 69.075C119.163 67.5417 118.738 66.425 117.888 65.725C117.054 65.025 115.721 64.675 113.888 64.675H101.463V72ZM101.463 61.525H113.888C115.854 61.525 117.229 61.2833 118.013 60.8C118.813 60.3 119.213 59.325 119.213 57.875C119.213 55.925 117.371 54.95 113.688 54.95H101.463V61.525ZM128.527 75.55C127.06 75.55 126.327 75.025 126.327 73.975C126.327 72.925 127.002 72.4 128.352 72.4C129.135 72.4 129.827 72.0833 130.427 71.45C131.027 70.8 131.485 69.95 131.802 68.9C132.068 68 132.377 67.2417 132.727 66.625C133.077 65.9917 133.535 65.4 134.102 64.85C132.435 64.4667 131.227 63.8 130.477 62.85C129.743 61.9 129.377 60.6 129.377 58.95C129.377 56.9833 129.735 55.4917 130.452 54.475C131.185 53.4417 132.393 52.7417 134.077 52.375C135.76 51.9917 138.027 51.8 140.877 51.8H148.452C148.918 51.8 149.277 51.9667 149.527 52.3C149.793 52.6167 149.927 53.0833 149.927 53.7V73.8C149.927 74.3333 149.785 74.75 149.502 75.05C149.218 75.35 148.827 75.5 148.327 75.5C147.86 75.5 147.485 75.3417 147.202 75.025C146.918 74.725 146.777 74.3167 146.777 73.8V65.425H140.627C139.41 65.425 138.435 65.55 137.702 65.8C136.985 66.05 136.41 66.475 135.977 67.075C135.56 67.675 135.193 68.5 134.877 69.55C134.377 71.2833 133.527 72.7167 132.327 73.85C131.143 74.9833 129.877 75.55 128.527 75.55ZM139.277 62.275H146.777V54.95H139.277C137.677 54.95 136.377 55.0167 135.377 55.15C134.393 55.2833 133.668 55.6083 133.202 56.125C132.752 56.625 132.527 57.4333 132.527 58.55C132.527 59.7 132.752 60.5417 133.202 61.075C133.668 61.5917 134.393 61.925 135.377 62.075C136.377 62.2083 137.677 62.275 139.277 62.275ZM161.625 75.15C159.642 75.15 158.267 74.65 157.5 73.65C156.734 72.65 156.35 70.9083 156.35 68.425C156.35 67.075 156.875 66.4 157.925 66.4C158.975 66.4 159.5 67.075 159.5 68.425V69.325C159.5 70.3417 159.667 71.0417 160 71.425C160.35 71.8083 161.009 72 161.975 72H171.125C175.175 72 177.2 71.075 177.2 69.225C177.2 67.6417 176.734 66.4917 175.8 65.775C174.884 65.0417 173.392 64.675 171.325 64.675H167.025C165.642 64.675 164.95 64.1833 164.95 63.2C164.95 62.0833 165.642 61.525 167.025 61.525H171.325C172.792 61.525 173.95 61.4167 174.8 61.2C175.667 60.9833 176.292 60.6 176.675 60.05C177.059 59.5 177.25 58.725 177.25 57.725C177.25 55.875 175.209 54.95 171.125 54.95H161.975C161.009 54.95 160.35 55.1417 160 55.525C159.667 55.8917 159.5 56.5917 159.5 57.625V58.525C159.5 59.875 158.975 60.55 157.925 60.55C156.875 60.55 156.35 59.875 156.35 58.525C156.35 56.025 156.734 54.2833 157.5 53.3C158.267 52.3 159.642 51.8 161.625 51.8H171.475C174.225 51.8 176.392 52.3333 177.975 53.4C179.559 54.4667 180.35 56.1 180.35 58.3C180.35 59.6 180.109 60.625 179.625 61.375C179.159 62.125 178.484 62.725 177.6 63.175C179.434 64.425 180.35 66.2 180.35 68.5C180.35 70.7833 179.559 72.4667 177.975 73.55C176.392 74.6167 174.225 75.15 171.475 75.15H161.625ZM206.534 75.5C206.118 75.5 205.809 75.35 205.609 75.05C205.409 74.7667 205.276 74.2333 205.209 73.45C205.159 72.6667 205.126 71.55 205.109 70.1L205.559 71.175C204.593 72.575 203.359 73.5917 201.859 74.225C200.359 74.8417 198.576 75.15 196.509 75.15H191.859C190.193 75.15 188.834 74.5833 187.784 73.45C186.751 72.3167 186.234 70.575 186.234 68.225C186.234 66.4917 186.526 65.0917 187.109 64.025C187.693 62.9583 188.509 62.1417 189.559 61.575C190.609 60.9917 191.843 60.6 193.259 60.4C194.693 60.1833 196.243 60.075 197.909 60.075H206.409L204.984 61.4V57.475C204.984 56.5083 204.818 55.85 204.484 55.5C204.151 55.1333 203.493 54.95 202.509 54.95H195.459C193.959 54.95 192.768 55.0333 191.884 55.2C191.001 55.3667 190.368 55.6333 189.984 56C189.601 56.3667 189.401 56.8583 189.384 57.475C189.351 58.1083 189.243 58.5917 189.059 58.925C188.876 59.2583 188.459 59.425 187.809 59.425C186.759 59.425 186.234 58.7083 186.234 57.275C186.234 55.4083 187.001 54.0333 188.534 53.15C190.084 52.25 192.276 51.8 195.109 51.8H202.859C204.843 51.8 206.218 52.2833 206.984 53.25C207.751 54.2 208.134 55.8833 208.134 58.3V73.55C208.134 74.85 207.601 75.5 206.534 75.5ZM191.934 72.1H196.509C199.609 72.1 201.809 71.3083 203.109 69.725C204.409 68.1417 205.034 65.75 204.984 62.55L205.609 63.125H197.909C195.943 63.125 194.326 63.2417 193.059 63.475C191.809 63.6917 190.884 64.15 190.284 64.85C189.684 65.55 189.384 66.6083 189.384 68.025C189.384 69.4083 189.634 70.4333 190.134 71.1C190.634 71.7667 191.234 72.1 191.934 72.1ZM223.357 75.5C222.24 75.5 221.682 74.9 221.682 73.7V54.95H214.207C212.924 54.95 212.282 54.425 212.282 53.375C212.282 52.325 212.924 51.8 214.207 51.8H232.507C233.79 51.8 234.432 52.325 234.432 53.375C234.432 54.425 233.79 54.95 232.507 54.95H225.082V73.7C225.082 74.2667 224.932 74.7083 224.632 75.025C224.332 75.3417 223.907 75.5 223.357 75.5ZM238.742 75.15V53.45C238.742 52.1167 239.267 51.45 240.317 51.45C241.367 51.45 241.892 52.1167 241.892 53.45V61.525H252.567C254.234 61.525 255.684 61.775 256.917 62.275C258.151 62.7583 259.109 63.5 259.792 64.5C260.492 65.5 260.842 66.775 260.842 68.325C260.842 69.8583 260.501 71.1333 259.817 72.15C259.134 73.15 258.167 73.9 256.917 74.4C255.684 74.8833 254.234 75.1333 252.567 75.15H238.742ZM241.892 72H252.167C253.851 72 255.192 71.7333 256.192 71.2C257.209 70.65 257.717 69.725 257.717 68.425C257.717 67.325 257.467 66.5083 256.967 65.975C256.467 65.4417 255.801 65.0917 254.967 64.925C254.134 64.7583 253.201 64.675 252.167 64.675H241.892V72ZM277.061 75.15C274.294 75.15 272.053 74.8833 270.336 74.35C268.619 73.8167 267.361 72.9 266.561 71.6C265.778 70.3 265.386 68.4917 265.386 66.175V60.775C265.386 58.4583 265.778 56.65 266.561 55.35C267.361 54.0333 268.619 53.1167 270.336 52.6C272.053 52.0667 274.294 51.8 277.061 51.8H284.211C285.528 51.8 286.561 52.0417 287.311 52.525C288.078 52.9917 288.611 53.6417 288.911 54.475C289.228 55.2917 289.386 56.225 289.386 57.275C289.386 58.0917 289.253 58.7 288.986 59.1C288.736 59.5 288.344 59.7 287.811 59.7C287.244 59.7 286.836 59.4917 286.586 59.075C286.353 58.6417 286.236 58.15 286.236 57.6C286.236 56.7333 286.086 56.075 285.786 55.625C285.486 55.175 284.811 54.95 283.761 54.95H277.061C274.794 54.95 273.044 55.0833 271.811 55.35C270.578 55.6167 269.719 56.175 269.236 57.025C268.769 57.8583 268.536 59.1333 268.536 60.85V66.1C268.536 67.7667 268.769 69.025 269.236 69.875C269.703 70.7083 270.544 71.275 271.761 71.575C272.994 71.8583 274.761 72 277.061 72H283.761C284.828 72 285.494 71.7833 285.761 71.35C286.044 70.9167 286.203 70.2583 286.236 69.375C286.269 68.6583 286.419 68.125 286.686 67.775C286.953 67.425 287.328 67.25 287.811 67.25C288.311 67.25 288.694 67.4417 288.961 67.825C289.244 68.2083 289.386 68.825 289.386 69.675C289.386 70.7917 289.219 71.7583 288.886 72.575C288.553 73.3917 288.003 74.025 287.236 74.475C286.469 74.925 285.428 75.15 284.111 75.15H277.061ZM295.323 75.55C293.857 75.55 293.123 75.025 293.123 73.975C293.123 72.925 293.798 72.4 295.148 72.4C295.932 72.4 296.623 72.0833 297.223 71.45C297.823 70.8 298.282 69.95 298.598 68.9C298.865 68 299.173 67.2417 299.523 66.625C299.873 65.9917 300.332 65.4 300.898 64.85C299.232 64.4667 298.023 63.8 297.273 62.85C296.54 61.9 296.173 60.6 296.173 58.95C296.173 56.9833 296.532 55.4917 297.248 54.475C297.982 53.4417 299.19 52.7417 300.873 52.375C302.557 51.9917 304.823 51.8 307.673 51.8H315.248C315.715 51.8 316.073 51.9667 316.323 52.3C316.59 52.6167 316.723 53.0833 316.723 53.7V73.8C316.723 74.3333 316.582 74.75 316.298 75.05C316.015 75.35 315.623 75.5 315.123 75.5C314.657 75.5 314.282 75.3417 313.998 75.025C313.715 74.725 313.573 74.3167 313.573 73.8V65.425H307.423C306.207 65.425 305.232 65.55 304.498 65.8C303.782 66.05 303.207 66.475 302.773 67.075C302.357 67.675 301.99 68.5 301.673 69.55C301.173 71.2833 300.323 72.7167 299.123 73.85C297.94 74.9833 296.673 75.55 295.323 75.55ZM306.073 62.275H313.573V54.95H306.073C304.473 54.95 303.173 55.0167 302.173 55.15C301.19 55.2833 300.465 55.6083 299.998 56.125C299.548 56.625 299.323 57.4333 299.323 58.55C299.323 59.7 299.548 60.5417 299.998 61.075C300.465 61.5917 301.19 61.925 302.173 62.075C303.173 62.2083 304.473 62.275 306.073 62.275Z" fill="black"/>
</svg>
