<svg width="150" height="150" viewBox="0 0 150 150" fill="none" xmlns="http://www.w3.org/2000/svg">
<g clip-path="url(#clip0_167_776)">
<path d="M26.5625 1.20902e-05H123.438C126.927 -0.00336079 130.382 0.699013 133.606 2.06694C136.831 3.43486 139.76 5.44148 142.227 7.97195C144.695 10.5024 146.651 13.5071 147.985 16.8139C149.318 20.1208 150.003 23.665 150 27.2436V122.756C150.003 126.335 149.318 129.879 147.985 133.186C146.651 136.493 144.695 139.498 142.227 142.028C139.76 144.559 136.831 146.565 133.606 147.933C130.382 149.301 126.927 150.003 123.438 150H26.5625C23.0734 150.003 19.6178 149.301 16.3936 147.933C13.1694 146.565 10.2399 144.559 7.77265 142.028C5.30544 139.498 3.34899 136.493 2.01526 133.186C0.681538 129.879 -0.00327677 126.335 1.1788e-05 122.756V27.2436C-0.00327677 23.665 0.681538 20.1208 2.01526 16.8139C3.34899 13.5071 5.30544 10.5024 7.77265 7.97195C10.2399 5.44148 13.1694 3.43486 16.3936 2.06694C19.6178 0.699013 23.0734 -0.00336079 26.5625 1.20902e-05Z" fill="#54A0B4"/>
<path d="M65.3017 121.603C39.633 121.603 18.75 100.72 18.75 75.0517C18.75 49.383 39.633 28.5 65.3017 28.5C81.865 28.5 97.3124 37.4133 105.615 51.7613L85.4687 63.4193C81.3132 56.2375 73.5852 51.7759 65.3017 51.7759C52.4671 51.7759 42.0259 62.2171 42.0259 75.0517C42.0259 87.8859 52.4671 98.3276 65.3017 98.3276C73.5861 98.3276 81.3141 93.8659 85.47 86.6828L105.616 98.3404C97.3138 112.69 81.8659 121.603 65.3017 121.603Z" fill="white"/>
<path d="M111.853 72.4652H106.68V67.293H101.509V72.4652H96.3359V77.6375H101.509V82.8102H106.68V77.6375H111.853V72.4652Z" fill="white"/>
<path d="M131.25 72.4652H126.077V67.293H120.905V72.4652H115.732V77.6375H120.905V82.8102H126.077V77.6375H131.25V72.4652Z" fill="white"/>
</g>
<defs>
<clipPath id="clip0_167_776">
<rect width="150" height="150" fill="white"/>
</clipPath>
</defs>
</svg>
