<svg width="150" height="150" viewBox="0 0 150 150" fill="none" xmlns="http://www.w3.org/2000/svg">
<path d="M26.5625 1.20902e-05H123.438C126.927 -0.00336079 130.382 0.699013 133.606 2.06694C136.831 3.43486 139.76 5.44148 142.227 7.97195C144.695 10.5024 146.651 13.5071 147.985 16.8139C149.318 20.1208 150.003 23.665 150 27.2436V122.756C150.003 126.335 149.318 129.879 147.985 133.186C146.651 136.493 144.695 139.498 142.227 142.028C139.76 144.559 136.831 146.565 133.606 147.933C130.382 149.301 126.927 150.003 123.438 150H26.5625C23.0733 150.003 19.6178 149.301 16.3936 147.933C13.1694 146.565 10.2399 144.559 7.77265 142.028C5.30544 139.498 3.34899 136.493 2.01526 133.186C0.681538 129.879 -0.00327677 126.335 1.1788e-05 122.756V27.2436C-0.00327677 23.665 0.681538 20.1208 2.01526 16.8139C3.34899 13.5071 5.30544 10.5024 7.77265 7.97195C10.2399 5.44148 13.1694 3.43486 16.3936 2.06694C19.6178 0.699013 23.0733 -0.00336079 26.5625 1.20902e-05Z" fill="#54A0B4"/>
<path d="M36.7163 61.8357L38.1923 78.3058H75.0493V61.8357H36.7163ZM33.75 28.5L35.2471 44.9701H75.0493V28.5H33.75ZM75.0493 104.61L74.9771 104.63L56.6344 99.6767L55.4617 86.5411H38.9282L41.2355 112.402L74.9735 121.767L75.0493 121.746V104.61Z" fill="#EBEBEB"/>
<path d="M113.277 61.8357L116.25 28.5H74.9927V44.9701H98.2005L96.7018 61.8357H74.9927V78.3058H95.2739L93.3616 99.6664L74.9922 104.624V121.759L108.757 112.402L109.005 109.619L112.875 66.2584L113.277 61.8357Z" fill="white"/>
</svg>
