<svg width="150" height="151" viewBox="0 0 150 151" fill="none" xmlns="http://www.w3.org/2000/svg">
<g clip-path="url(#clip0_167_711)">
<path d="M26.5625 0.500012H123.438C126.927 0.496639 130.382 1.19901 133.606 2.56694C136.831 3.93486 139.76 5.94148 142.227 8.47195C144.695 11.0024 146.651 14.0071 147.985 17.3139C149.318 20.6208 150.003 24.165 150 27.7436V123.256C150.003 126.835 149.318 130.379 147.985 133.686C146.651 136.993 144.695 139.998 142.227 142.528C139.76 145.059 136.831 147.065 133.606 148.433C130.382 149.801 126.927 150.503 123.438 150.5H26.5625C23.0734 150.503 19.6178 149.801 16.3936 148.433C13.1694 147.065 10.2399 145.059 7.77265 142.528C5.30544 139.998 3.34899 136.993 2.01526 133.686C0.681538 130.379 -0.00327677 126.835 1.1788e-05 123.256V27.7436C-0.00327677 24.165 0.681538 20.6208 2.01526 17.3139C3.34899 14.0071 5.30544 11.0024 7.77265 8.47195C10.2399 5.94148 13.1694 3.93486 16.3936 2.56694C19.6178 1.19901 23.0734 0.496639 26.5625 0.500012Z" fill="#000B1D"/>
<path d="M60.625 121.25C69.2545 121.25 76.25 114.254 76.25 105.625V90H60.625C51.9955 90 45 96.9955 45 105.625C45 114.254 51.9955 121.25 60.625 121.25Z" fill="#917800"/>
<path d="M45 74.375C45 65.7455 51.9955 58.75 60.625 58.75H76.25V90H60.625C51.9955 90 45 83.0045 45 74.375Z" fill="#A259FF"/>
<path d="M45 43.125C45 34.4955 51.9955 27.5 60.625 27.5H76.25V58.75H60.625C51.9955 58.75 45 51.7545 45 43.125Z" fill="#F24E1E"/>
<path d="M76.25 27.5H91.875C100.504 27.5 107.5 34.4955 107.5 43.125C107.5 51.7545 100.504 58.75 91.875 58.75H76.25V27.5Z" fill="#DCB39B"/>
<path d="M107.5 74.375C107.5 83.0045 100.504 90 91.875 90C83.2455 90 76.25 83.0045 76.25 74.375C76.25 65.7455 83.2455 58.75 91.875 58.75C100.504 58.75 107.5 65.7455 107.5 74.375Z" fill="#54A0B4"/>
</g>
<defs>
<clipPath id="clip0_167_711">
<rect width="150" height="150" fill="white" transform="translate(0 0.5)"/>
</clipPath>
</defs>
</svg>
