<svg width="150" height="150" viewBox="0 0 150 150" fill="none" xmlns="http://www.w3.org/2000/svg">
<path d="M26.5625 1.20902e-05H123.438C126.927 -0.00336079 130.382 0.699013 133.606 2.06694C136.831 3.43486 139.76 5.44148 142.227 7.97195C144.695 10.5024 146.651 13.5071 147.985 16.8139C149.318 20.1208 150.003 23.665 150 27.2436V122.756C150.003 126.335 149.318 129.879 147.985 133.186C146.651 136.493 144.695 139.498 142.227 142.028C139.76 144.559 136.831 146.565 133.606 147.933C130.382 149.301 126.927 150.003 123.438 150H26.5625C23.0733 150.003 19.6178 149.301 16.3936 147.933C13.1694 146.565 10.2399 144.559 7.77265 142.028C5.30544 139.498 3.34899 136.493 2.01526 133.186C0.681538 129.879 -0.00327677 126.335 1.1788e-05 122.756V27.2436C-0.00327677 23.665 0.681538 20.1208 2.01526 16.8139C3.34899 13.5071 5.30544 10.5024 7.77265 7.97195C10.2399 5.44148 13.1694 3.43486 16.3936 2.06694C19.6178 0.699013 23.0733 -0.00336079 26.5625 1.20902e-05Z" fill="#F0F0F0"/>
<path d="M129.129 69.9892L80.0074 20.8718C77.1811 18.0427 72.5933 18.0427 69.7634 20.8718L59.5639 31.0727L72.5016 44.011C75.5094 42.9955 78.9568 43.6764 81.3532 46.0733C83.762 48.4852 84.438 51.9622 83.3971 54.9801L95.8668 67.4504C98.8836 66.4107 102.364 67.0824 104.773 69.4957C108.141 72.8627 108.141 78.3186 104.773 81.6865C101.405 85.0554 95.9492 85.0554 92.579 81.6865C90.0467 79.152 89.4203 75.4311 90.7029 72.3109L79.0735 60.681L79.0725 91.2848C79.8936 91.6913 80.6685 92.2338 81.3527 92.9151C84.7196 96.2817 84.7196 101.737 81.3527 105.109C77.9848 108.475 72.5267 108.475 69.1624 105.109C65.7951 101.737 65.7951 96.282 69.1624 92.9151C69.9946 92.0844 70.9575 91.4556 71.985 91.0341V60.1459C70.9571 59.7262 69.9953 59.1021 69.1618 58.2647C66.6112 55.7159 65.9969 51.9723 67.305 48.84L54.5509 36.0834L20.8723 69.7623C18.0426 72.5935 18.0426 77.1815 20.8723 80.0107L69.9909 129.128C72.8188 131.957 77.405 131.957 80.2369 129.128L129.128 80.2427C131.957 77.4123 131.957 72.823 129.128 69.9934" fill="#D98656"/>
</svg>
