<svg width="150" height="150" viewBox="0 0 150 150" fill="none" xmlns="http://www.w3.org/2000/svg">
<rect width="150" height="150" rx="75" fill="#917800"/>
<path fill-rule="evenodd" clip-rule="evenodd" d="M74.9825 26.25C62.7964 26.2563 51.01 30.5724 41.7307 38.4264C32.4513 46.2804 26.2842 57.1603 24.3321 69.1205C22.38 81.0808 24.7701 93.3415 31.0751 103.71C37.3801 114.079 47.1888 121.88 58.7474 125.718C61.2974 126.191 62.2579 124.611 62.2579 123.267C62.2579 121.923 62.2069 118.027 62.1899 113.767C47.9098 116.852 44.8923 107.741 44.8923 107.741C42.5633 101.825 39.1973 100.27 39.1973 100.27C34.5393 97.1089 39.5458 97.1681 39.5458 97.1681C44.7054 97.5315 47.4169 102.434 47.4169 102.434C51.9899 110.234 59.4274 107.978 62.3514 106.659C62.8104 103.355 64.1449 101.107 65.6154 99.8304C54.2084 98.5457 42.2233 94.1677 42.2233 74.6105C42.1526 69.5385 44.0455 64.6335 47.5104 60.9104C46.9834 59.6257 45.2238 54.4364 48.0118 47.3877C48.0118 47.3877 52.3214 46.0185 62.1304 52.6193C70.544 50.3315 79.421 50.3315 87.8345 52.6193C97.6351 46.0185 101.936 47.3877 101.936 47.3877C104.733 54.4195 102.973 59.6088 102.446 60.9104C105.922 64.6341 107.819 69.5476 107.742 74.6275C107.742 94.2269 95.731 98.5457 84.307 99.805C86.143 101.394 87.7835 104.496 87.7835 109.262C87.7835 116.091 87.724 121.585 87.724 123.267C87.724 124.628 88.6505 126.217 91.2515 125.718C102.811 121.879 112.621 114.077 118.926 103.707C125.231 93.3361 127.62 81.0735 125.665 69.1122C123.711 57.1508 117.541 46.2709 108.259 38.4182C98.9761 30.5655 87.1869 26.2523 74.9994 26.25H74.9825Z" fill="white"/>
<path d="M43.0894 99.5346C42.9789 99.7881 42.5709 99.8642 42.2394 99.6867C41.9079 99.5092 41.6614 99.1796 41.7804 98.9176C41.8994 98.6556 42.2989 98.588 42.6304 98.7654C42.9619 98.9429 43.2169 99.281 43.0894 99.5346Z" fill="white"/>
<path d="M45.1717 101.842C44.9957 101.93 44.7943 101.955 44.602 101.912C44.4098 101.868 44.2386 101.76 44.1177 101.605C43.7862 101.25 43.7182 100.76 43.9732 100.54C44.2282 100.321 44.6872 100.422 45.0187 100.777C45.3502 101.132 45.4267 101.622 45.1717 101.842Z" fill="white"/>
<path d="M47.1948 104.774C46.8803 104.994 46.3447 104.774 46.0472 104.335C45.965 104.256 45.8996 104.162 45.8549 104.057C45.8102 103.952 45.7871 103.84 45.7871 103.726C45.7871 103.613 45.8102 103.5 45.8549 103.396C45.8996 103.291 45.965 103.197 46.0472 103.118C46.3617 102.907 46.8973 103.118 47.1948 103.549C47.4923 103.98 47.5008 104.555 47.1948 104.774Z" fill="white"/>
<path d="M49.9404 107.614C49.6599 107.927 49.0904 107.842 48.6229 107.42C48.1554 106.997 48.0449 106.423 48.3254 106.118C48.6059 105.814 49.1754 105.899 49.6599 106.313C50.1444 106.727 50.2379 107.31 49.9404 107.614Z" fill="white"/>
<path d="M53.7902 109.271C53.6627 109.668 53.0847 109.845 52.5067 109.676C51.9287 109.507 51.5462 109.034 51.6567 108.628C51.7672 108.223 52.3537 108.037 52.9402 108.223C53.5267 108.409 53.9007 108.857 53.7902 109.271Z" fill="white"/>
<path d="M57.9896 109.558C57.9896 109.972 57.5136 110.327 56.9016 110.336C56.2896 110.344 55.7881 110.006 55.7881 109.592C55.7881 109.178 56.2641 108.823 56.8761 108.815C57.4881 108.806 57.9896 109.136 57.9896 109.558Z" fill="white"/>
<path d="M61.9002 108.908C61.9767 109.322 61.5517 109.753 60.9397 109.854C60.3277 109.956 59.7921 109.711 59.7156 109.305C59.6391 108.899 60.0812 108.46 60.6762 108.35C61.2712 108.24 61.8237 108.494 61.9002 108.908Z" fill="white"/>
</svg>
