<svg width="1005" height="178" viewBox="0 0 1005 178" fill="none" xmlns="http://www.w3.org/2000/svg">
<path d="M0 71L36.5 9.5L172 22L297 31.5L863 0L996 128L202.5 166L96.5 128L63 143.5H36.5L0 71Z" fill="#54A0B4"/>
<path d="M3 80L39.5 18.5L175 31L300 40.5L866 9L999 137L205.5 175L99.5 137L66 152.5H39.5L3 80Z" stroke="black" stroke-width="5" stroke-dasharray="10 10"/>
<path d="M88.072 103.64C86.728 103.64 86.056 102.808 86.056 101.144V70.52C86.056 67.4053 86.5467 65.2293 87.528 63.992C88.5307 62.7333 90.2907 62.104 92.808 62.104H113.288C115.016 62.104 115.88 62.776 115.88 64.12C115.88 65.464 115.016 66.136 113.288 66.136H93.256C92.04 66.136 91.208 66.3813 90.76 66.872C90.312 67.3413 90.088 68.2267 90.088 69.528V101.144C90.088 102.808 89.416 103.64 88.072 103.64ZM124.388 103.64C123.044 103.64 122.372 102.861 122.372 101.304V64.536C122.372 62.808 123.001 61.944 124.26 61.944H136.003C140.996 61.944 144.644 62.6907 146.948 64.184C149.252 65.656 150.404 68.184 150.404 71.768C150.404 75.096 149.433 77.656 147.492 79.448C145.55 81.2187 142.681 82.104 138.884 82.104H126.404V101.304C126.404 102.861 125.732 103.64 124.388 103.64ZM126.404 78.072H136.003C138.457 78.072 140.441 77.9333 141.956 77.656C143.492 77.3787 144.612 76.8027 145.316 75.928C146.02 75.0533 146.372 73.7307 146.372 71.96C146.372 70.3387 146.052 69.1013 145.412 68.248C144.793 67.3733 143.726 66.776 142.212 66.456C140.718 66.136 138.649 65.976 136.003 65.976H126.404V78.072ZM155.703 104.216C155.127 104.216 154.647 104.045 154.263 103.704C153.879 103.363 153.687 102.936 153.687 102.424C153.687 101.955 153.762 101.539 153.911 101.176L168.727 62.104H173.079L187.927 101.176C188.055 101.539 188.119 101.955 188.119 102.424C188.119 102.936 187.927 103.363 187.543 103.704C187.18 104.045 186.7 104.216 186.103 104.216C185.143 104.216 184.46 103.661 184.055 102.552L179.575 90.616H162.231L157.783 102.552C157.292 103.661 156.599 104.216 155.703 104.216ZM163.831 86.584H177.975L170.839 68.088L163.831 86.584ZM207.486 103.64C206.782 103.64 206.248 103.427 205.885 103C205.523 102.573 205.342 102.008 205.342 101.304V98.328C201.288 97.9227 198.046 96.376 195.614 93.688C193.182 90.9787 191.966 87.4267 191.966 83.032V82.264C191.966 77.8693 193.182 74.3173 195.614 71.608C198.046 68.8987 201.288 67.3413 205.342 66.936V63.992C205.342 62.4347 206.046 61.656 207.454 61.656C208.883 61.656 209.598 62.456 209.598 64.056V66.936C213.566 67.4053 216.734 68.9947 219.102 71.704C221.491 74.4133 222.686 77.9333 222.686 82.264V83.032C222.686 87.3413 221.491 90.8507 219.102 93.56C216.734 96.2693 213.566 97.8587 209.598 98.328V101.304C209.598 102.861 208.894 103.64 207.486 103.64ZM205.342 94.616V70.68C202.376 71 200.072 72.1733 198.43 74.2C196.808 76.2053 195.998 78.8933 195.998 82.264V83.032C195.998 86.4453 196.798 89.144 198.398 91.128C200.019 93.0907 202.334 94.2533 205.342 94.616ZM209.598 94.584C212.499 94.2213 214.728 93.0373 216.286 91.032C217.864 89.0053 218.654 86.3387 218.654 83.032V82.264C218.654 78.9573 217.864 76.312 216.286 74.328C214.728 72.3227 212.499 71.1173 209.598 70.712V94.584ZM232.324 103.64C231.022 103.64 230.372 102.808 230.372 101.144V64.216C230.372 62.5093 231.044 61.656 232.388 61.656C233.732 61.656 234.404 62.5413 234.404 64.312V95.928L256.996 63C257.636 62.104 258.372 61.656 259.204 61.656C260.462 61.656 261.092 62.5093 261.092 64.216V101.144C261.092 102.808 260.42 103.64 259.076 103.64C257.732 103.64 257.06 102.84 257.06 101.24V69.208L234.308 102.52C234.009 102.968 233.721 103.267 233.444 103.416C233.188 103.565 232.814 103.64 232.324 103.64ZM298.474 103.64C297.087 103.64 296.394 102.787 296.394 101.08V88.76C293.919 91.2347 290.474 92.472 286.058 92.472H284.01C280.661 92.472 277.93 92.12 275.818 91.416C273.706 90.712 272.159 89.5067 271.178 87.8C270.197 86.0933 269.706 83.7573 269.706 80.792V64.248C269.706 62.52 270.378 61.656 271.722 61.656C273.066 61.656 273.738 62.5093 273.738 64.216V80.728C273.738 82.8827 274.026 84.5147 274.602 85.624C275.178 86.7333 276.213 87.48 277.706 87.864C279.199 88.248 281.301 88.44 284.01 88.44H286.058C289.471 88.44 292.042 87.5013 293.77 85.624C295.519 83.7253 296.394 80.9627 296.394 77.336V64.216C296.394 62.5093 297.066 61.656 298.41 61.656C299.754 61.656 300.426 62.488 300.426 64.152V101.08C300.426 102.787 299.775 103.64 298.474 103.64ZM312.697 103.192C311.438 103.192 310.809 102.328 310.809 100.6V64.696C310.809 62.968 311.438 62.104 312.697 62.104H339.001C340.686 62.104 341.529 62.8187 341.529 64.248C341.529 65.5067 340.686 66.136 339.001 66.136H314.841V78.072H331.289C333.124 78.072 334.041 78.7867 334.041 80.216C334.041 81.4747 333.124 82.104 331.289 82.104H314.841V99.16H339.001C340.686 99.16 341.529 99.8747 341.529 101.304C341.529 102.563 340.686 103.192 339.001 103.192H312.697ZM363.766 103.192C360.203 103.192 357.323 102.851 355.126 102.168C352.95 101.464 351.35 100.269 350.326 98.584C349.323 96.8773 348.822 94.52 348.822 91.512V73.784C348.822 70.7973 349.312 68.4613 350.294 66.776C351.296 65.0693 352.854 63.864 354.966 63.16C357.078 62.456 359.819 62.104 363.19 62.104H372.79C374.539 62.104 375.904 62.4133 376.886 63.032C377.867 63.6293 378.55 64.4507 378.934 65.496C379.339 66.5413 379.542 67.7147 379.542 69.016C379.542 71.1493 378.87 72.216 377.526 72.216C376.822 72.216 376.32 71.9813 376.022 71.512C375.723 71.0213 375.552 70.3493 375.51 69.496C375.488 68.3013 375.275 67.448 374.87 66.936C374.486 66.4027 373.643 66.136 372.342 66.136H363.19C360.48 66.136 358.379 66.3173 356.886 66.68C355.392 67.0213 354.347 67.7467 353.75 68.856C353.152 69.9653 352.854 71.6293 352.854 73.848V91.448C352.854 93.624 353.152 95.2667 353.75 96.376C354.347 97.464 355.435 98.2 357.014 98.584C358.592 98.968 360.843 99.16 363.766 99.16H372.342C373.643 99.16 374.486 98.904 374.87 98.392C375.275 97.8587 375.488 96.9947 375.51 95.8C375.574 94.84 375.776 94.1467 376.118 93.72C376.48 93.2933 376.95 93.08 377.526 93.08C378.187 93.08 378.688 93.3253 379.03 93.816C379.371 94.2853 379.542 95.0107 379.542 95.992C379.542 97.4213 379.339 98.68 378.934 99.768C378.55 100.835 377.867 101.677 376.886 102.296C375.904 102.893 374.539 103.192 372.79 103.192H363.766ZM390.106 103.64C389.487 103.64 388.996 103.427 388.634 103C388.292 102.595 388.122 102.029 388.122 101.304V66.52C388.122 65.7733 388.303 65.176 388.666 64.728C389.028 64.28 389.54 64.056 390.202 64.056C391.503 64.056 392.154 64.8773 392.154 66.52V82.04H397.818C398.543 82.04 399.3 81.6453 400.09 80.856C400.9 80.0453 401.754 78.9573 402.65 77.592C403.567 76.2267 404.527 74.68 405.53 72.952C406.106 71.9493 406.735 70.9253 407.418 69.88C408.1 68.8347 408.836 67.864 409.626 66.968C410.436 66.072 411.311 65.3573 412.25 64.824C413.21 64.2693 414.234 63.992 415.322 63.992C417.071 63.992 417.946 64.7067 417.946 66.136C417.946 66.9253 417.679 67.416 417.146 67.608C416.612 67.8 416.015 67.9387 415.354 68.024C414.116 68.1733 413.071 68.792 412.218 69.88C411.364 70.968 410.404 72.4293 409.338 74.264C408.399 75.9067 407.631 77.24 407.034 78.264C406.436 79.2667 405.903 80.1093 405.434 80.792C404.986 81.4533 404.484 82.072 403.93 82.648C403.375 83.2027 402.65 83.8533 401.753 84.6L401.69 83.448C402.842 84.3653 403.844 85.336 404.698 86.36C405.572 87.384 406.383 88.4933 407.13 89.688C407.898 90.8827 408.698 92.1947 409.53 93.624C410.746 95.6293 411.759 97.0907 412.57 98.008C413.402 98.904 414.351 99.4373 415.418 99.608C415.78 99.6507 416.154 99.7147 416.538 99.8C416.943 99.8853 417.274 100.067 417.53 100.344C417.807 100.6 417.946 101.027 417.946 101.624C417.946 102.968 417.114 103.64 415.45 103.64C413.914 103.64 412.42 103.064 410.97 101.912C409.54 100.76 408.154 99.2347 406.81 97.336C406.298 96.5253 405.754 95.672 405.178 94.776C404.623 93.88 404.068 93.0053 403.514 92.152C402.255 90.0827 401.156 88.5573 400.218 87.576C399.279 86.5733 398.34 86.072 397.402 86.072H392.154V101.304C392.154 102.008 391.972 102.573 391.61 103C391.247 103.427 390.746 103.64 390.106 103.64ZM427.511 103.64C426.21 103.64 425.559 102.808 425.559 101.144V64.216C425.559 62.5093 426.231 61.656 427.575 61.656C428.919 61.656 429.591 62.5413 429.591 64.312V95.928L452.183 63C452.823 62.104 453.559 61.656 454.391 61.656C455.65 61.656 456.279 62.5093 456.279 64.216V101.144C456.279 102.808 455.607 103.64 454.263 103.64C452.919 103.64 452.247 102.84 452.247 101.24V69.208L429.495 102.52C429.196 102.968 428.908 103.267 428.631 103.416C428.375 103.565 428.002 103.64 427.511 103.64ZM468.51 103.192C467.251 103.192 466.622 102.328 466.622 100.6V64.696C466.622 62.968 467.251 62.104 468.51 62.104H494.814C496.499 62.104 497.342 62.8187 497.342 64.248C497.342 65.5067 496.499 66.136 494.814 66.136H470.654V78.072H487.102C488.936 78.072 489.854 78.7867 489.854 80.216C489.854 81.4747 488.936 82.104 487.102 82.104H470.654V99.16H494.814C496.499 99.16 497.342 99.8747 497.342 101.304C497.342 102.563 496.499 103.192 494.814 103.192H468.51ZM524.888 103.64C523.544 103.64 522.872 102.861 522.872 101.304V64.536C522.872 62.808 523.501 61.944 524.76 61.944H536.503C541.496 61.944 545.144 62.6907 547.448 64.184C549.752 65.656 550.904 68.184 550.904 71.768C550.904 75.096 549.933 77.656 547.992 79.448C546.05 81.2187 543.181 82.104 539.384 82.104H526.904V101.304C526.904 102.861 526.232 103.64 524.888 103.64ZM526.904 78.072H536.503C538.957 78.072 540.941 77.9333 542.456 77.656C543.992 77.3787 545.112 76.8027 545.816 75.928C546.52 75.0533 546.872 73.7307 546.872 71.96C546.872 70.3387 546.552 69.1013 545.912 68.248C545.293 67.3733 544.226 66.776 542.712 66.456C541.218 66.136 539.149 65.976 536.503 65.976H526.904V78.072ZM559.947 103.192C558.688 103.192 558.059 102.328 558.059 100.6V64.696C558.059 62.968 558.688 62.104 559.947 62.104H586.251C587.936 62.104 588.779 62.8187 588.779 64.248C588.779 65.5067 587.936 66.136 586.251 66.136H562.091V78.072H578.539C580.374 78.072 581.291 78.7867 581.291 80.216C581.291 81.4747 580.374 82.104 578.539 82.104H562.091V99.16H586.251C587.936 99.16 588.779 99.8747 588.779 101.304C588.779 102.563 587.936 103.192 586.251 103.192H559.947ZM594.248 109.08C592.904 109.08 592.232 108.216 592.232 106.488V103.32C592.232 101.848 592.562 100.824 593.224 100.248C593.906 99.6507 594.92 99.3413 596.264 99.32C596.797 98.3387 597.352 96.8347 597.928 94.808C598.504 92.7813 599.069 90.4347 599.624 87.768C600.178 85.08 600.68 82.2427 601.128 79.256C601.576 76.2693 601.928 73.304 602.184 70.36C602.461 67.3947 602.589 64.6427 602.568 62.104H622.696V99.352C624.04 99.3947 625.01 99.7147 625.608 100.312C626.226 100.909 626.536 101.912 626.536 103.32V106.488C626.536 108.216 625.864 109.08 624.52 109.08C623.176 109.08 622.504 108.216 622.504 106.488V103.192H596.264V106.488C596.264 108.216 595.592 109.08 594.248 109.08ZM600.712 99.16H618.664V66.136H606.792C606.77 68.2053 606.621 70.4987 606.344 73.016C606.088 75.512 605.746 78.072 605.32 80.696C604.893 83.32 604.424 85.8373 603.912 88.248C603.4 90.6587 602.866 92.8133 602.312 94.712C601.757 96.6107 601.224 98.0933 600.712 99.16ZM632.266 104.216C631.69 104.216 631.21 104.045 630.826 103.704C630.442 103.363 630.25 102.936 630.25 102.424C630.25 101.955 630.324 101.539 630.474 101.176L645.29 62.104H649.642L664.49 101.176C664.618 101.539 664.682 101.955 664.682 102.424C664.682 102.936 664.49 103.363 664.106 103.704C663.743 104.045 663.263 104.216 662.666 104.216C661.706 104.216 661.023 103.661 660.618 102.552L656.138 90.616H638.794L634.346 102.552C633.855 103.661 633.162 104.216 632.266 104.216ZM640.394 86.584H654.538L647.402 68.088L640.394 86.584ZM673.168 103.64C672.549 103.64 672.059 103.427 671.696 103C671.355 102.595 671.184 102.029 671.184 101.304V66.52C671.184 65.7733 671.365 65.176 671.728 64.728C672.091 64.28 672.603 64.056 673.264 64.056C674.565 64.056 675.216 64.8773 675.216 66.52V82.04H680.88C681.605 82.04 682.363 81.6453 683.152 80.856C683.963 80.0453 684.816 78.9573 685.712 77.592C686.629 76.2267 687.589 74.68 688.592 72.952C689.168 71.9493 689.797 70.9253 690.48 69.88C691.163 68.8347 691.899 67.864 692.688 66.968C693.499 66.072 694.373 65.3573 695.312 64.824C696.272 64.2693 697.296 63.992 698.384 63.992C700.133 63.992 701.008 64.7067 701.008 66.136C701.008 66.9253 700.741 67.416 700.208 67.608C699.675 67.8 699.077 67.9387 698.416 68.024C697.179 68.1733 696.133 68.792 695.28 69.88C694.427 70.968 693.467 72.4293 692.4 74.264C691.461 75.9067 690.693 77.24 690.096 78.264C689.499 79.2667 688.965 80.1093 688.496 80.792C688.048 81.4533 687.547 82.072 686.992 82.648C686.437 83.2027 685.712 83.8533 684.816 84.6L684.752 83.448C685.904 84.3653 686.907 85.336 687.76 86.36C688.635 87.384 689.445 88.4933 690.192 89.688C690.96 90.8827 691.76 92.1947 692.592 93.624C693.808 95.6293 694.821 97.0907 695.632 98.008C696.464 98.904 697.413 99.4373 698.48 99.608C698.843 99.6507 699.216 99.7147 699.6 99.8C700.005 99.8853 700.336 100.067 700.592 100.344C700.869 100.6 701.008 101.027 701.008 101.624C701.008 102.968 700.176 103.64 698.512 103.64C696.976 103.64 695.483 103.064 694.032 101.912C692.603 100.76 691.216 99.2347 689.872 97.336C689.36 96.5253 688.816 95.672 688.24 94.776C687.685 93.88 687.131 93.0053 686.576 92.152C685.317 90.0827 684.219 88.5573 683.28 87.576C682.341 86.5733 681.403 86.072 680.464 86.072H675.216V101.304C675.216 102.008 675.035 102.573 674.672 103C674.309 103.427 673.808 103.64 673.168 103.64ZM719.086 103.64C718.403 103.64 717.87 103.437 717.486 103.032C717.123 102.627 716.942 102.051 716.942 101.304V66.136H707.374C706.606 66.136 705.998 65.9653 705.549 65.624C705.123 65.2613 704.91 64.76 704.91 64.12C704.91 63.48 705.123 62.9893 705.549 62.648C705.998 62.2853 706.606 62.104 707.374 62.104H730.798C732.44 62.104 733.262 62.776 733.262 64.12C733.262 65.464 732.44 66.136 730.798 66.136H721.326V101.304C721.326 102.029 721.123 102.595 720.718 103C720.334 103.427 719.79 103.64 719.086 103.64ZM754.109 103.768C751.058 103.768 748.381 103.149 746.077 101.912C743.773 100.653 741.97 98.872 740.669 96.568C739.389 94.264 738.749 91.5333 738.749 88.376V76.92C738.749 73.7413 739.389 71.0107 740.669 68.728C741.97 66.424 743.773 64.6533 746.077 63.416C748.381 62.1573 751.058 61.528 754.109 61.528C757.159 61.528 759.837 62.1573 762.141 63.416C764.466 64.6533 766.269 66.424 767.549 68.728C768.829 71.032 769.469 73.7627 769.469 76.92V88.376C769.469 91.4907 768.839 94.2 767.581 96.504C766.322 98.808 764.541 100.6 762.237 101.88C759.933 103.139 757.223 103.768 754.109 103.768ZM754.109 99.736C757.714 99.736 760.498 98.7333 762.461 96.728C764.445 94.7227 765.437 91.9067 765.437 88.28V77.016C765.437 73.3467 764.455 70.52 762.493 68.536C760.551 66.552 757.757 65.56 754.109 65.56C750.525 65.56 747.741 66.5627 745.757 68.568C743.773 70.552 742.781 73.368 742.781 77.016V88.28C742.781 91.9067 743.773 94.7227 745.757 96.728C747.741 98.7333 750.525 99.736 754.109 99.736ZM780.575 103.64C779.231 103.64 778.559 102.861 778.559 101.304V64.536C778.559 62.808 779.188 61.944 780.447 61.944H792.191C797.183 61.944 800.831 62.6907 803.135 64.184C805.439 65.656 806.591 68.184 806.591 71.768C806.591 75.096 805.62 77.656 803.679 79.448C801.738 81.2187 798.868 82.104 795.071 82.104H782.591V101.304C782.591 102.861 781.919 103.64 780.575 103.64ZM782.591 78.072H792.191C794.644 78.072 796.628 77.9333 798.143 77.656C799.679 77.3787 800.799 76.8027 801.503 75.928C802.207 75.0533 802.559 73.7307 802.559 71.96C802.559 70.3387 802.239 69.1013 801.599 68.248C800.98 67.3733 799.914 66.776 798.399 66.456C796.906 66.136 794.836 65.976 792.191 65.976H782.591V78.072ZM815.635 103.64C814.376 103.64 813.747 102.787 813.747 101.08V64.44C813.747 62.8827 814.419 62.104 815.763 62.104C817.107 62.104 817.779 62.872 817.779 64.408V72.824H827.378C830.152 72.824 832.627 73.5173 834.803 74.904C836.979 76.2693 838.685 78.1253 839.923 80.472C841.16 82.7973 841.779 85.4 841.779 88.28C841.779 91.16 841.16 93.7627 839.923 96.088C838.685 98.392 836.979 100.227 834.803 101.592C832.648 102.957 830.173 103.64 827.378 103.64H815.635ZM817.779 99.608H827.378C829.512 99.608 831.357 99.1173 832.915 98.136C834.472 97.1333 835.667 95.7787 836.499 94.072C837.331 92.344 837.747 90.4133 837.747 88.28C837.747 86.1253 837.32 84.184 836.467 82.456C835.635 80.728 834.44 79.3627 832.883 78.36C831.347 77.3573 829.512 76.856 827.378 76.856H817.779V99.608ZM846.323 103.64C844.979 103.64 844.307 102.861 844.307 101.304V64.056C844.307 62.456 844.979 61.656 846.323 61.656C847.667 61.656 848.339 62.456 848.339 64.056V101.304C848.339 102.861 847.667 103.64 846.323 103.64Z" fill="black"/>
</svg>
