<svg width="150" height="151" viewBox="0 0 150 151" fill="none" xmlns="http://www.w3.org/2000/svg">
<path d="M123.75 0.5H26.25C11.7525 0.5 0 12.2525 0 26.75V124.25C0 138.747 11.7525 150.5 26.25 150.5H123.75C138.247 150.5 150 138.747 150 124.25V26.75C150 12.2525 138.247 0.5 123.75 0.5Z" fill="#917800"/>
<path d="M76.2455 92.0894H53.6757L48.0333 109.217C47.9684 109.739 47.6117 110 46.9631 110H36.7483C36.0998 110 35.8728 109.674 36.0674 109.021L56.3024 50.8851C56.7564 49.9064 57.0482 48.0794 57.1779 45.4043C57.1779 45.0128 57.4049 44.817 57.8589 44.817H71.8678C72.1921 44.817 72.4515 44.9801 72.646 45.3064L95.2159 109.119C95.4104 109.706 95.2159 110 94.6322 110H83.1527C82.6987 110 82.3744 109.772 82.1799 109.315L76.2455 92.0894ZM56.2051 82.5957H73.7162C73.4567 81.6823 72.0948 77.539 69.6302 70.166C67.2306 62.7277 65.6416 57.6383 64.8633 54.8979H64.7661C63.9878 58.2255 61.1341 67.4582 56.2051 82.5957Z" fill="#F6E6AB"/>
<path d="M101.256 109.119V63.1191C101.256 62.5972 101.515 62.3362 102.034 62.3362H112.833C113.351 62.3362 113.611 62.5972 113.611 63.1191V109.217C113.611 109.739 113.351 110 112.833 110H102.131C101.548 110 101.256 109.706 101.256 109.119ZM112.249 52.4511C111.081 53.6255 109.493 54.2128 107.482 54.2128C105.471 54.2128 103.882 53.6255 102.715 52.4511C101.548 51.2766 100.964 49.678 100.964 47.6553C100.964 45.6979 101.58 44.0993 102.812 42.8596C104.045 41.6199 105.634 41 107.579 41C109.525 41 111.081 41.6199 112.249 42.8596C113.416 44.0993 114 45.6979 114 47.6553C114 49.678 113.416 51.2766 112.249 52.4511Z" fill="#F6E6AB"/>
</svg>
