<svg width="150" height="151" viewBox="0 0 150 151" fill="none" xmlns="http://www.w3.org/2000/svg">
<path d="M123.75 0.5H26.25C11.7525 0.5 0 12.2525 0 26.75V124.25C0 138.747 11.7525 150.5 26.25 150.5H123.75C138.247 150.5 150 138.747 150 124.25V26.75C150 12.2525 138.247 0.5 123.75 0.5Z" fill="#DCB39B"/>
<path d="M55.3962 46.2064V108.992C55.3962 109.578 55.1341 109.871 54.6097 109.871H44.2865C43.7622 109.871 43.5 109.578 43.5 108.992V46.2064C43.5 45.6856 43.7622 45.4252 44.2865 45.4252H54.708C55.1668 45.4252 55.3962 45.6856 55.3962 46.2064Z" fill="#EC4E68"/>
<path d="M87.4127 110.75C80.0717 110.75 74.2056 108.699 69.8141 104.598C65.4227 100.497 63.2269 94.4432 63.2269 86.4363C63.2269 79.1454 65.5865 73.1565 70.3057 68.4695C75.0249 63.7825 81.3171 61.4391 89.1824 61.4391C91.1487 61.4391 92.8528 61.6018 94.2948 61.9273V40.8359C94.2948 40.4453 94.4914 40.25 94.8847 40.25H105.699C106.027 40.25 106.191 40.4453 106.191 40.8359V99.3255C106.191 101.799 106.289 103.947 106.486 105.77C106.551 106.161 106.388 106.454 105.994 106.649C100.292 109.383 94.0981 110.75 87.4127 110.75ZM94.2948 101.083V70.9107C92.9839 70.1946 91.2142 69.8366 88.9857 69.8366C84.9875 69.8366 81.7431 71.2362 79.2524 74.0353C76.7618 76.8345 75.5164 80.8054 75.5164 85.9481C75.5164 91.4162 76.729 95.4522 79.1541 98.0561C81.6448 100.66 84.7909 101.962 88.5925 101.962C90.952 101.962 92.8528 101.669 94.2948 101.083Z" fill="#EC4E68"/>
</svg>
