<svg width="150" height="150" viewBox="0 0 150 150" fill="none" xmlns="http://www.w3.org/2000/svg">
<g clip-path="url(#clip0_167_753)">
<path d="M26.5625 1.20902e-05H123.438C126.927 -0.00336079 130.382 0.699013 133.606 2.06694C136.831 3.43486 139.76 5.44148 142.227 7.97195C144.695 10.5024 146.651 13.5071 147.985 16.8139C149.318 20.1208 150.003 23.665 150 27.2436V122.756C150.003 126.335 149.318 129.879 147.985 133.186C146.651 136.493 144.695 139.498 142.227 142.028C139.76 144.559 136.831 146.565 133.606 147.933C130.382 149.301 126.927 150.003 123.438 150H26.5625C23.0733 150.003 19.6178 149.301 16.3936 147.933C13.1694 146.565 10.2399 144.559 7.77265 142.028C5.30544 139.498 3.34899 136.493 2.01526 133.186C0.681538 129.879 -0.00327677 126.335 1.1788e-05 122.756V27.2436C-0.00327677 23.665 0.681538 20.1208 2.01526 16.8139C3.34899 13.5071 5.30544 10.5024 7.77265 7.97195C10.2399 5.44148 13.1694 3.43486 16.3936 2.06694C19.6178 0.699013 23.0733 -0.00336079 26.5625 1.20902e-05Z" fill="#FFDB56"/>
<path d="M101.017 117.369C104.038 122.302 107.969 125.929 114.921 125.929C120.762 125.929 124.493 123.01 124.493 118.976C124.493 114.143 120.66 112.431 114.231 109.619L110.707 108.107C100.536 103.774 93.7786 98.3452 93.7786 86.869C93.7786 76.2976 101.833 68.25 114.421 68.25C123.383 68.25 129.826 71.369 134.469 79.5357L123.493 86.5833C121.076 82.25 118.469 80.5429 114.421 80.5429C110.293 80.5429 107.676 83.1619 107.676 86.5833C107.676 90.8119 110.295 92.5238 116.343 95.1429L119.867 96.6524C131.843 101.788 138.605 107.024 138.605 118.795C138.605 131.486 128.636 138.438 115.248 138.438C102.157 138.438 93.7 132.2 89.5619 124.024L101.017 117.369ZM51.2238 118.59C53.4381 122.519 55.4524 125.84 60.2952 125.84C64.9262 125.84 67.8476 124.029 67.8476 116.983V69.0548H81.9429V117.174C81.9429 131.769 73.3857 138.412 60.8952 138.412C49.6095 138.412 43.0738 132.571 39.75 125.537L51.2238 118.59Z" fill="black"/>
</g>
<defs>
<clipPath id="clip0_167_753">
<rect width="150" height="150" fill="white"/>
</clipPath>
</defs>
</svg>
