<svg width="87" height="765" viewBox="0 0 87 765" fill="none" xmlns="http://www.w3.org/2000/svg">
<line x1="43.5" y1="-6.55671e-08" x2="43.5" y2="766" stroke="#435333" stroke-width="3"/>
<g clip-path="url(#clip0_167_686)">
<path d="M87.0001 84.4999C87.0001 78.7994 82.3789 74.1783 76.6786 74.1783H69.4184L74.5521 69.0446C78.5828 65.0139 78.583 58.4786 74.5521 54.4479C70.5214 50.4171 63.9861 50.4171 59.9554 54.4479C59.6829 54.7203 57.7159 56.6873 54.8217 59.5816L29.9033 84.4999L54.8217 109.418C57.4072 112.004 59.3971 113.994 59.9554 114.552C63.9861 118.583 70.5214 118.583 74.5521 114.552C78.583 110.521 78.5828 103.986 74.5521 99.9554L69.4182 94.8217H76.6785C82.3789 94.8215 87.0001 90.2002 87.0001 84.4999Z" fill="#54A0B4"/>
<path d="M54.8216 59.5817V52.3216C54.8216 46.6211 50.2005 42 44.5 42C38.7997 42 34.1784 46.6211 34.1784 52.3216V59.5818L29.0447 54.4481C25.014 50.4174 18.4787 50.4172 14.448 54.4481C10.4172 58.4789 10.4172 65.0141 14.448 69.0449C14.7204 69.3173 16.6874 71.2843 19.5817 74.1786H12.3214C6.62113 74.1784 2 78.7995 2 84.5C2 90.2003 6.62113 94.8216 12.3214 94.8216H19.5817C16.9961 97.4072 15.0062 99.3971 14.448 99.9553C10.4172 103.986 10.4172 110.521 14.448 114.552C18.4789 118.583 25.014 118.583 29.0447 114.552L34.1784 109.418V116.678C34.1784 122.379 38.7997 127 44.5 127C50.2005 127 54.8216 122.379 54.8216 116.678V109.418C41.0595 95.6562 41.0595 73.3438 54.8216 59.5817Z" fill="#001E36"/>
</g>
<path d="M37.3948 315.763L42.3051 331.984C42.4897 332.595 42.9669 333 43.5004 333C44.0339 333 44.5111 332.595 44.6957 331.984L49.6059 315.763C53.5805 302.631 62.0766 292.28 72.8538 287.438L86.1671 281.455C86.6676 281.231 87 280.649 87 279.999C87 279.349 86.6676 278.768 86.1671 278.543L72.853 272.56C62.0759 267.717 53.5797 257.367 49.6059 244.236L44.6957 228.015C44.5111 227.405 44.0339 227 43.5004 227C42.9669 227 42.4897 227.405 42.3051 228.015L37.3948 244.236C33.4203 257.367 24.9249 267.717 14.147 272.56L0.832881 278.543C0.332402 278.768 0 279.349 0 279.999C0 280.649 0.332402 281.231 0.832881 281.455L14.1462 287.438C24.9241 292.28 33.4203 302.631 37.3948 315.763Z" fill="#F6E6AB"/>
<g clip-path="url(#clip1_167_686)">
<path d="M87.0001 475.5C87.0001 469.799 82.3789 465.178 76.6786 465.178H69.4184L74.5521 460.045C78.5828 456.014 78.583 449.479 74.5521 445.448C70.5214 441.417 63.9861 441.417 59.9554 445.448C59.6829 445.72 57.7159 447.687 54.8217 450.582L29.9033 475.5L54.8217 500.418C57.4072 503.004 59.3971 504.994 59.9554 505.552C63.9861 509.583 70.5214 509.583 74.5521 505.552C78.583 501.521 78.5828 494.986 74.5521 490.955L69.4182 485.822H76.6785C82.3789 485.821 87.0001 481.2 87.0001 475.5Z" fill="#DCB39B"/>
<path d="M54.8216 450.582V443.322C54.8216 437.621 50.2005 433 44.5 433C38.7997 433 34.1784 437.621 34.1784 443.322V450.582L29.0447 445.448C25.014 441.417 18.4787 441.417 14.448 445.448C10.4172 449.479 10.4172 456.014 14.448 460.045C14.7204 460.317 16.6874 462.284 19.5817 465.179H12.3214C6.62113 465.178 2 469.8 2 475.5C2 481.2 6.62113 485.822 12.3214 485.822H19.5817C16.9961 488.407 15.0062 490.397 14.448 490.955C10.4172 494.986 10.4172 501.521 14.448 505.552C18.4789 509.583 25.014 509.583 29.0447 505.552L34.1784 500.418V507.678C34.1784 513.379 38.7997 518 44.5 518C50.2005 518 54.8216 513.379 54.8216 507.678V500.418C41.0595 486.656 41.0595 464.344 54.8216 450.582Z" fill="#EC4E68"/>
</g>
<path d="M37.3948 706.763L42.3051 722.984C42.4897 723.595 42.9669 724 43.5004 724C44.0339 724 44.5111 723.595 44.6957 722.984L49.6059 706.763C53.5805 693.631 62.0766 683.28 72.8538 678.438L86.1671 672.455C86.6676 672.231 87 671.649 87 670.999C87 670.349 86.6676 669.768 86.1671 669.543L72.853 663.56C62.0759 658.717 53.5797 648.367 49.6059 635.236L44.6957 619.015C44.5111 618.405 44.0339 618 43.5004 618C42.9669 618 42.4897 618.405 42.3051 619.015L37.3948 635.236C33.4203 648.367 24.9249 658.717 14.147 663.56L0.832881 669.543C0.332402 669.768 0 670.349 0 670.999C0 671.649 0.332402 672.231 0.832881 672.455L14.1462 678.438C24.9241 683.28 33.4203 693.631 37.3948 706.763Z" fill="#000B1D"/>
<defs>
<clipPath id="clip0_167_686">
<rect width="85" height="85" fill="white" transform="translate(2 42)"/>
</clipPath>
<clipPath id="clip1_167_686">
<rect width="85" height="85" fill="white" transform="translate(2 433)"/>
</clipPath>
</defs>
</svg>
