<svg width="150" height="150" viewBox="0 0 150 150" fill="none" xmlns="http://www.w3.org/2000/svg">
<rect width="150" height="150" rx="75" fill="#FEFEFE"/>
<g filter="url(#filter0_i_160_620)">
<path d="M24.3555 65.7217H125.644V122.552H24.3555V65.7217Z" fill="#DCB39B"/>
</g>
<path d="M74.9998 35.5669L24.3555 61.8556V69.9741L74.9998 92.3968L125.644 69.9741V61.8556L74.9998 35.5669Z" fill="#80553D"/>
<path opacity="0.8" d="M46.0049 27.062C42.5887 27.062 39.8193 29.8314 39.8193 33.2476V76.821L70.475 90.3937C73.3566 91.6695 76.6429 91.6695 79.5245 90.3937L110.18 76.821V33.2476C110.18 29.8314 107.411 27.062 103.995 27.062H46.0049Z" fill="#FFDB56"/>
<rect x="49.0977" y="37.5" width="24.7423" height="6.95876" fill="#FEFEFE"/>
<path opacity="0.9" d="M49.0977 50.6445H100.902V57.6033H49.0977V50.6445Z" fill="#FEFEFE"/>
<path opacity="0.8" d="M49.0977 63.7886H90.4636V70.7473H49.0977V63.7886Z" fill="#FEFEFE"/>
<path opacity="0.6" d="M55.7898 83.8919H77.7059C78.56 83.8919 79.2523 83.1995 79.2523 82.3455V78.4795C79.2523 77.6254 78.56 76.9331 77.7059 76.9331H50.644C49.79 76.9331 49.0977 77.6254 49.0977 78.4795V80.9289L55.7898 83.8919Z" fill="#FEFEFE"/>
<defs>
<filter id="filter0_i_160_620" x="24.3555" y="65.7217" width="101.289" height="61.3455" filterUnits="userSpaceOnUse" color-interpolation-filters="sRGB">
<feFlood flood-opacity="0" result="BackgroundImageFix"/>
<feBlend mode="normal" in="SourceGraphic" in2="BackgroundImageFix" result="shape"/>
<feColorMatrix in="SourceAlpha" type="matrix" values="0 0 0 0 0 0 0 0 0 0 0 0 0 0 0 0 0 0 127 0" result="hardAlpha"/>
<feOffset dy="4.51546"/>
<feGaussianBlur stdDeviation="10.7242"/>
<feComposite in2="hardAlpha" operator="arithmetic" k2="-1" k3="1"/>
<feColorMatrix type="matrix" values="0 0 0 0 1 0 0 0 0 1 0 0 0 0 1 0 0 0 0.38 0"/>
<feBlend mode="normal" in2="shape" result="effect1_innerShadow_160_620"/>
</filter>
</defs>
</svg>
