<svg width="150" height="151" viewBox="0 0 150 151" fill="none" xmlns="http://www.w3.org/2000/svg">
<path d="M123.75 0.5H26.25C11.7525 0.5 0 12.2525 0 26.75V124.25C0 138.747 11.7525 150.5 26.25 150.5H123.75C138.247 150.5 150 138.747 150 124.25V26.75C150 12.2525 138.247 0.5 123.75 0.5Z" fill="#001E36"/>
<path d="M33.75 106.845V43.3761C33.75 42.9218 33.9775 42.6947 34.4325 42.6947C39.3722 42.5649 45.6444 42.5 53.249 42.5C62.2185 42.5 68.7832 44.5118 72.943 48.5354C77.1677 52.559 79.2801 57.5236 79.2801 63.4292C79.2801 70.7625 76.6803 76.2139 71.4805 79.7832C66.2808 83.3525 59.7486 85.1372 51.8841 85.1372H46.1319V106.748C46.1319 107.267 45.8719 107.527 45.3519 107.527H34.53C34.01 107.527 33.75 107.299 33.75 106.845ZM46.1319 51.8451V75.792C47.0418 75.9218 49.1542 75.9867 52.469 75.9867C56.8238 75.9867 60.3336 75.0457 62.9985 73.1637C65.7283 71.2168 67.0933 68.0693 67.0933 63.7212C67.0933 59.8923 65.8908 56.9395 63.486 54.8628C61.1461 52.7861 57.7337 51.7478 53.249 51.7478C52.144 51.7478 51.0391 51.7802 49.9342 51.8451C48.8942 51.8451 48.0168 51.8451 47.3018 51.8451C46.6518 51.8451 46.2618 51.8451 46.1319 51.8451Z" fill="#54A0B4"/>
<path d="M113.295 71.3142C109.655 69.0428 105.853 67.9071 101.888 67.9071C99.6134 67.9071 97.9235 68.3289 96.8186 69.1726C95.7786 70.0162 95.2586 71.0221 95.2586 72.1903C95.2586 73.3584 95.7136 74.3968 96.6236 75.3053C97.5335 76.149 99.4509 77.1549 102.376 78.323C107.77 80.3997 111.54 82.6062 113.685 84.9425C115.895 87.2139 117 90.1667 117 93.8009C117 98.2139 115.31 101.783 111.93 104.509C108.615 107.17 104.098 108.5 98.3785 108.5C92.6588 108.5 87.979 107.462 84.3392 105.385C83.9492 105.255 83.7542 104.931 83.7542 104.412V95.3584C83.7542 95.0988 83.8192 94.9366 83.9492 94.8717C84.1442 94.7419 84.3067 94.7419 84.4367 94.8717C88.6615 97.9867 93.1787 99.5443 97.9885 99.5443C100.263 99.5443 101.986 99.1549 103.156 98.3761C104.391 97.5324 105.008 96.4617 105.008 95.1637C105.008 93.8009 104.521 92.6652 103.546 91.7566C102.571 90.7832 100.653 89.7448 97.7935 88.6416C92.5938 86.6298 88.954 84.4882 86.8741 82.2168C84.8592 79.8805 83.8517 76.9602 83.8517 73.4558C83.8517 69.4322 85.3791 66.0575 88.434 63.3319C91.4888 60.6062 95.8436 59.2434 101.498 59.2434C106.763 59.2434 110.825 59.9572 113.685 61.385C114.01 61.5796 114.173 62.0015 114.173 62.6504V70.7301C114.173 71.5089 113.88 71.7035 113.295 71.3142Z" fill="#54A0B4"/>
</svg>
