<svg width="1022" height="268" viewBox="0 0 1022 268" fill="none" xmlns="http://www.w3.org/2000/svg">
<path d="M331.874 230.93L48.8738 243.912L2.87888 142L105.708 140.053L926 105L892.602 186.789L916.039 253L331.874 230.93Z" fill="#F6E6AB"/>
<path d="M3 152.053L3.87888 154M3.87888 154L49.8738 255.912L332.874 242.93L917.039 265L893.602 198.789L927 117L106.708 152.053L3.87888 154Z" stroke="black" stroke-width="5" stroke-dasharray="10 10"/>
<path d="M169.232 206.64C167.888 206.64 167.216 205.808 167.216 204.144V165.104H197.296V204.144C197.296 205.808 196.624 206.64 195.28 206.64C193.936 206.64 193.264 205.808 193.264 204.144V169.136H171.248V204.144C171.248 205.808 170.576 206.64 169.232 206.64ZM209.7 206.64C208.356 206.64 207.684 205.861 207.684 204.304V167.536C207.684 165.808 208.313 164.944 209.572 164.944H221.316C226.308 164.944 229.956 165.691 232.26 167.184C234.564 168.656 235.716 171.184 235.716 174.768C235.716 178.096 234.745 180.656 232.804 182.448C230.863 184.219 227.993 185.104 224.196 185.104H211.716V204.304C211.716 205.861 211.044 206.64 209.7 206.64ZM211.716 181.072H221.316C223.769 181.072 225.753 180.933 227.268 180.656C228.804 180.379 229.924 179.803 230.628 178.928C231.332 178.053 231.684 176.731 231.684 174.96C231.684 173.339 231.364 172.101 230.724 171.248C230.105 170.373 229.039 169.776 227.524 169.456C226.031 169.136 223.961 168.976 221.316 168.976H211.716V181.072ZM256.984 206.768C253.933 206.768 251.256 206.149 248.952 204.912C246.648 203.653 244.845 201.872 243.544 199.568C242.264 197.264 241.624 194.533 241.624 191.376V179.92C241.624 176.741 242.264 174.011 243.544 171.728C244.845 169.424 246.648 167.653 248.952 166.416C251.256 165.157 253.933 164.528 256.984 164.528C260.034 164.528 262.712 165.157 265.016 166.416C267.341 167.653 269.144 169.424 270.424 171.728C271.704 174.032 272.344 176.763 272.344 179.92V191.376C272.344 194.491 271.714 197.2 270.456 199.504C269.197 201.808 267.416 203.6 265.112 204.88C262.808 206.139 260.098 206.768 256.984 206.768ZM256.984 202.736C260.589 202.736 263.373 201.733 265.336 199.728C267.32 197.723 268.312 194.907 268.312 191.28V180.016C268.312 176.347 267.33 173.52 265.368 171.536C263.426 169.552 260.632 168.56 256.984 168.56C253.4 168.56 250.616 169.563 248.632 171.568C246.648 173.552 245.656 176.368 245.656 180.016V191.28C245.656 194.907 246.648 197.723 248.632 199.728C250.616 201.733 253.4 202.736 256.984 202.736ZM283.322 206.64C281.978 206.64 281.306 205.808 281.306 204.144V173.52C281.306 170.405 281.797 168.229 282.778 166.992C283.781 165.733 285.541 165.104 288.058 165.104H308.538C310.266 165.104 311.13 165.776 311.13 167.12C311.13 168.464 310.266 169.136 308.538 169.136H288.506C287.29 169.136 286.458 169.381 286.01 169.872C285.562 170.341 285.338 171.227 285.338 172.528V204.144C285.338 205.808 284.666 206.64 283.322 206.64ZM319.638 206.64C318.294 206.64 317.622 205.861 317.622 204.304V167.536C317.622 165.808 318.251 164.944 319.51 164.944H331.253C336.246 164.944 339.894 165.691 342.198 167.184C344.502 168.656 345.654 171.184 345.654 174.768C345.654 178.096 344.683 180.656 342.742 182.448C340.8 184.219 337.931 185.104 334.134 185.104H321.654V204.304C321.654 205.861 320.982 206.64 319.638 206.64ZM321.654 181.072H331.253C333.707 181.072 335.691 180.933 337.206 180.656C338.742 180.379 339.862 179.803 340.566 178.928C341.27 178.053 341.622 176.731 341.622 174.96C341.622 173.339 341.302 172.101 340.662 171.248C340.043 170.373 338.976 169.776 337.462 169.456C335.968 169.136 333.899 168.976 331.253 168.976H321.654V181.072ZM350.953 207.216C350.377 207.216 349.897 207.045 349.513 206.704C349.129 206.363 348.937 205.936 348.937 205.424C348.937 204.955 349.012 204.539 349.161 204.176L363.977 165.104H368.329L383.177 204.176C383.305 204.539 383.369 204.955 383.369 205.424C383.369 205.936 383.177 206.363 382.793 206.704C382.43 207.045 381.95 207.216 381.353 207.216C380.393 207.216 379.71 206.661 379.305 205.552L374.825 193.616H357.481L353.033 205.552C352.542 206.661 351.849 207.216 350.953 207.216ZM359.081 189.584H373.225L366.089 171.088L359.081 189.584ZM391.888 206.64C390.544 206.64 389.872 205.808 389.872 204.144V167.216C389.872 165.509 390.501 164.656 391.76 164.656C392.613 164.656 393.349 165.104 393.968 166L405.872 183.376L417.84 166C418.458 165.104 419.173 164.656 419.984 164.656C421.285 164.656 421.936 165.509 421.936 167.216V204.144C421.936 205.808 421.264 206.64 419.92 206.64C418.576 206.64 417.904 205.776 417.904 204.048V172.048L407.6 187.28C407.322 187.707 407.056 187.995 406.8 188.144C406.544 188.272 406.256 188.336 405.936 188.336C405.616 188.336 405.317 188.272 405.04 188.144C404.784 187.995 404.506 187.707 404.208 187.28L393.904 172.048V204.048C393.904 205.776 393.232 206.64 391.888 206.64ZM434.325 206.64C432.981 206.64 432.309 205.808 432.309 204.144V167.216C432.309 165.509 432.938 164.656 434.197 164.656C435.05 164.656 435.786 165.104 436.405 166L448.309 183.376L460.277 166C460.896 165.104 461.61 164.656 462.421 164.656C463.722 164.656 464.373 165.509 464.373 167.216V204.144C464.373 205.808 463.701 206.64 462.357 206.64C461.013 206.64 460.341 205.776 460.341 204.048V172.048L450.037 187.28C449.76 187.707 449.493 187.995 449.237 188.144C448.981 188.272 448.693 188.336 448.373 188.336C448.053 188.336 447.754 188.272 447.477 188.144C447.221 187.995 446.944 187.707 446.645 187.28L436.341 172.048V204.048C436.341 205.776 435.669 206.64 434.325 206.64ZM476.699 206.64C475.397 206.64 474.747 205.808 474.747 204.144V167.216C474.747 165.509 475.419 164.656 476.763 164.656C478.107 164.656 478.779 165.541 478.779 167.312V198.928L501.371 166C502.011 165.104 502.747 164.656 503.579 164.656C504.837 164.656 505.467 165.509 505.467 167.216V204.144C505.467 205.808 504.795 206.64 503.451 206.64C502.107 206.64 501.435 205.84 501.435 204.24V172.208L478.683 205.52C478.384 205.968 478.096 206.267 477.819 206.416C477.563 206.565 477.189 206.64 476.699 206.64ZM517.825 206.64C516.481 206.64 515.809 205.861 515.809 204.304V167.536C515.809 165.808 516.438 164.944 517.697 164.944H529.441C534.433 164.944 538.081 165.691 540.385 167.184C542.689 168.656 543.841 171.184 543.841 174.768C543.841 178.096 542.87 180.656 540.929 182.448C538.988 184.219 536.118 185.104 532.321 185.104H519.841V204.304C519.841 205.861 519.169 206.64 517.825 206.64ZM519.841 181.072H529.441C531.894 181.072 533.878 180.933 535.393 180.656C536.929 180.379 538.049 179.803 538.753 178.928C539.457 178.053 539.809 176.731 539.809 174.96C539.809 173.339 539.489 172.101 538.849 171.248C538.23 170.373 537.164 169.776 535.649 169.456C534.156 169.136 532.086 168.976 529.441 168.976H519.841V181.072ZM565.109 206.768C562.058 206.768 559.381 206.149 557.077 204.912C554.773 203.653 552.97 201.872 551.669 199.568C550.389 197.264 549.749 194.533 549.749 191.376V179.92C549.749 176.741 550.389 174.011 551.669 171.728C552.97 169.424 554.773 167.653 557.077 166.416C559.381 165.157 562.058 164.528 565.109 164.528C568.159 164.528 570.837 165.157 573.141 166.416C575.466 167.653 577.269 169.424 578.549 171.728C579.829 174.032 580.469 176.763 580.469 179.92V191.376C580.469 194.491 579.839 197.2 578.581 199.504C577.322 201.808 575.541 203.6 573.237 204.88C570.933 206.139 568.223 206.768 565.109 206.768ZM565.109 202.736C568.714 202.736 571.498 201.733 573.461 199.728C575.445 197.723 576.437 194.907 576.437 191.28V180.016C576.437 176.347 575.455 173.52 573.493 171.536C571.551 169.552 568.757 168.56 565.109 168.56C561.525 168.56 558.741 169.563 556.757 171.568C554.773 173.552 553.781 176.368 553.781 180.016V191.28C553.781 194.907 554.773 197.723 556.757 199.728C558.741 201.733 561.525 202.736 565.109 202.736ZM591.447 206.192C590.188 206.192 589.559 205.328 589.559 203.6V167.696C589.559 165.968 590.188 165.104 591.447 165.104H603.095C608.108 165.104 611.778 165.851 614.103 167.344C616.428 168.837 617.591 171.44 617.591 175.152C617.591 176.859 617.346 178.32 616.855 179.536C616.386 180.731 615.66 181.712 614.679 182.48C616.556 183.269 617.954 184.517 618.871 186.224C619.81 187.909 620.279 190.16 620.279 192.976V194.512C620.279 197.52 619.778 199.877 618.775 201.584C617.772 203.269 616.172 204.464 613.975 205.168C611.799 205.851 608.94 206.192 605.399 206.192H591.447ZM593.591 202.16H605.399C607.319 202.16 609.026 202.085 610.519 201.936C612.034 201.765 613.228 201.371 614.103 200.752C614.956 200.176 615.522 199.387 615.799 198.384C616.098 197.36 616.247 196.069 616.247 194.512V193.072C616.247 191.259 616.076 189.883 615.735 188.944C615.394 187.984 614.828 187.248 614.039 186.736C613.207 186.16 612.172 185.797 610.935 185.648C609.698 185.499 608.044 185.424 605.975 185.424H593.591V202.16ZM593.591 181.392H603.095C605.762 181.392 607.852 181.232 609.367 180.912C610.882 180.571 611.959 179.963 612.599 179.088C613.239 178.213 613.559 176.955 613.559 175.312C613.559 173.691 613.239 172.443 612.599 171.568C611.98 170.693 610.903 170.096 609.367 169.776C607.852 169.456 605.762 169.296 603.095 169.296H593.591V181.392ZM627.016 207.216C626.44 207.216 625.96 207.045 625.576 206.704C625.192 206.363 625 205.936 625 205.424C625 204.955 625.074 204.539 625.224 204.176L640.04 165.104H644.392L659.24 204.176C659.368 204.539 659.432 204.955 659.432 205.424C659.432 205.936 659.24 206.363 658.856 206.704C658.493 207.045 658.013 207.216 657.416 207.216C656.456 207.216 655.773 206.661 655.368 205.552L650.888 193.616H633.544L629.096 205.552C628.605 206.661 627.912 207.216 627.016 207.216ZM635.144 189.584H649.288L642.152 171.088L635.144 189.584ZM667.95 206.64C666.606 206.64 665.934 205.808 665.934 204.144V167.216C665.934 165.509 666.563 164.656 667.822 164.656C669.251 164.656 669.966 165.509 669.966 167.216V182.032H692.622V167.216C692.622 165.509 693.294 164.656 694.638 164.656C695.982 164.656 696.654 165.509 696.654 167.216V204.144C696.654 205.808 695.982 206.64 694.638 206.64C693.294 206.64 692.622 205.808 692.622 204.144V186.064H669.966V204.144C669.966 205.808 669.294 206.64 667.95 206.64ZM708.949 206.64C707.647 206.64 706.997 205.808 706.997 204.144V167.216C706.997 165.509 707.669 164.656 709.013 164.656C710.357 164.656 711.029 165.541 711.029 167.312V198.928L733.621 166C734.261 165.104 734.997 164.656 735.829 164.656C737.087 164.656 737.717 165.509 737.717 167.216V204.144C737.717 205.808 737.045 206.64 735.701 206.64C734.357 206.64 733.685 205.84 733.685 204.24V172.208L710.933 205.52C710.634 205.968 710.346 206.267 710.069 206.416C709.813 206.565 709.439 206.64 708.949 206.64ZM749.947 206.192C748.688 206.192 748.059 205.328 748.059 203.6V167.696C748.059 165.968 748.688 165.104 749.947 165.104H776.251C777.936 165.104 778.779 165.819 778.779 167.248C778.779 168.507 777.936 169.136 776.251 169.136H752.091V181.072H768.539C770.374 181.072 771.291 181.787 771.291 183.216C771.291 184.475 770.374 185.104 768.539 185.104H752.091V202.16H776.251C777.936 202.16 778.779 202.875 778.779 204.304C778.779 205.563 777.936 206.192 776.251 206.192H749.947Z" fill="black"/>
<path d="M1021.04 60.9141C1021.11 60.95 1021.11 61.0938 1021.04 61.1656L1018.56 63.6453C1016.94 65.2984 1014.75 66.1969 1012.45 66.1969C1010.15 66.1969 1007.99 65.2984 1006.34 63.6453L997.75 55.0563L966.089 23.3594L957.464 14.7703C955.811 13.1531 954.912 10.9609 954.912 8.66094C954.912 6.36094 955.811 4.20469 957.464 2.55156L959.979 0.0359369C960.015 0.0359369 960.051 0 960.087 0C960.123 0 960.159 0.0359369 960.159 0.0359369L1021.04 60.9141Z" fill="#54A0B4"/>
<path d="M994.121 56.458L967.886 89.7361C967.779 89.808 967.707 89.8799 967.599 89.9518C966.521 91.0299 963.143 91.3174 958.039 89.5205C952.577 87.5799 946.719 83.7346 942.011 79.0268C937.268 74.3189 933.458 68.4611 931.518 62.9986C929.793 58.1471 929.972 54.8408 930.943 53.6189L930.979 53.583L964.652 26.9893L994.121 56.458Z" fill="#917800"/>
<path d="M968.03 93.7971C971.552 103.105 971.121 111.083 966.88 115.324C962.963 119.241 956.135 119.96 947.653 117.264C940.466 115 932.919 110.58 925.911 104.578C925.875 104.506 925.803 104.435 925.732 104.363C925.588 104.219 925.444 104.147 925.3 104.039C923.863 102.781 922.425 101.452 921.024 100.05C919.622 98.6846 918.328 97.2471 917.071 95.8096C916.999 95.6658 916.891 95.5221 916.747 95.3783C916.675 95.3065 916.603 95.2346 916.532 95.1987C910.53 88.1908 906.074 80.608 903.81 73.4205C901.15 64.9393 901.833 58.1112 905.75 54.194C910.027 49.8815 917.825 49.4862 927.277 53.044C926.271 55.7033 926.594 59.5846 928.211 64.1846C930.368 70.2221 934.393 76.4033 939.532 81.5424C944.707 86.7174 950.852 90.7065 956.889 92.8627C959.728 93.869 962.316 94.3721 964.472 94.3721C965.838 94.3721 967.024 94.1924 968.03 93.7971Z" fill="#54A0B4"/>
<path d="M921.922 105.728L883.505 144.11L880.109 141L877 137.605L915.417 99.2236C916.423 100.338 917.502 101.452 918.58 102.53C919.658 103.644 920.772 104.686 921.922 105.728Z" fill="#B9B9B9"/>
</svg>
