<svg width="87" height="600" viewBox="0 0 87 600" fill="none" xmlns="http://www.w3.org/2000/svg">
<line x1="43.5" y1="6.55671e-08" x2="43.5" y2="600" stroke="#435333" stroke-width="3"/>
<path d="M37.3948 141.763L42.3051 157.984C42.4897 158.595 42.9669 159 43.5004 159C44.0339 159 44.5111 158.595 44.6957 157.984L49.6059 141.763C53.5805 128.631 62.0766 118.28 72.8538 113.438L86.1671 107.455C86.6676 107.231 87 106.649 87 105.999C87 105.349 86.6676 104.768 86.1671 104.543L72.853 98.5601C62.0759 93.7175 53.5797 83.3667 49.6059 70.2358L44.6957 54.0148C44.5111 53.405 44.0339 53 43.5004 53C42.9669 53 42.4897 53.405 42.3051 54.0148L37.3948 70.2358C33.4203 83.3667 24.9249 93.7175 14.147 98.5601L0.832881 104.543C0.332402 104.768 0 105.349 0 105.999C0 106.649 0.332402 107.231 0.832881 107.455L14.1462 113.438C24.9241 118.28 33.4203 128.631 37.3948 141.763Z" fill="#FFDB56"/>
<g clip-path="url(#clip0_167_732)">
<path d="M87.0001 301.5C87.0001 295.799 82.3789 291.178 76.6786 291.178H69.4184L74.5521 286.045C78.5828 282.014 78.583 275.479 74.5521 271.448C70.5214 267.417 63.9861 267.417 59.9554 271.448C59.6829 271.72 57.7159 273.687 54.8217 276.582L29.9033 301.5L54.8217 326.418C57.4072 329.004 59.3971 330.994 59.9554 331.552C63.9861 335.583 70.5214 335.583 74.5521 331.552C78.583 327.521 78.5828 320.986 74.5521 316.955L69.4182 311.822H76.6785C82.3789 311.821 87.0001 307.2 87.0001 301.5Z" fill="#EBEBEB"/>
<path d="M54.8216 276.582V269.322C54.8216 263.621 50.2005 259 44.5 259C38.7997 259 34.1784 263.621 34.1784 269.322V276.582L29.0447 271.448C25.014 267.417 18.4787 267.417 14.448 271.448C10.4172 275.479 10.4172 282.014 14.448 286.045C14.7204 286.317 16.6874 288.284 19.5817 291.179H12.3214C6.62113 291.178 2 295.8 2 301.5C2 307.2 6.62113 311.822 12.3214 311.822H19.5817C16.9961 314.407 15.0062 316.397 14.448 316.955C10.4172 320.986 10.4172 327.521 14.448 331.552C18.4789 335.583 25.014 335.583 29.0447 331.552L34.1784 326.418V333.678C34.1784 339.379 38.7997 344 44.5 344C50.2005 344 54.8216 339.379 54.8216 333.678V326.418C41.0595 312.656 41.0595 290.344 54.8216 276.582Z" fill="#54A0B4"/>
</g>
<path d="M37.3948 532.763L42.3051 548.984C42.4897 549.595 42.9669 550 43.5004 550C44.0339 550 44.5111 549.595 44.6957 548.984L49.6059 532.763C53.5805 519.631 62.0766 509.28 72.8538 504.438L86.1671 498.455C86.6676 498.231 87 497.649 87 496.999C87 496.349 86.6676 495.768 86.1671 495.543L72.853 489.56C62.0759 484.717 53.5797 474.367 49.6059 461.236L44.6957 445.015C44.5111 444.405 44.0339 444 43.5004 444C42.9669 444 42.4897 444.405 42.3051 445.015L37.3948 461.236C33.4203 474.367 24.9249 484.717 14.147 489.56L0.832881 495.543C0.332402 495.768 0 496.349 0 496.999C0 497.649 0.332402 498.231 0.832881 498.455L14.1462 504.438C24.9241 509.28 33.4203 519.631 37.3948 532.763Z" fill="white"/>
<defs>
<clipPath id="clip0_167_732">
<rect width="85" height="85" fill="white" transform="translate(2 259)"/>
</clipPath>
</defs>
</svg>
