<svg width="87" height="600" viewBox="0 0 87 600" fill="none" xmlns="http://www.w3.org/2000/svg">
<line x1="43.5" y1="6.55671e-08" x2="43.5" y2="600" stroke="#435333" stroke-width="3"/>
<g clip-path="url(#clip0_167_757)">
<path d="M85.0001 99.4999C85.0001 93.7994 80.3789 89.1783 74.6786 89.1783H67.4184L72.5521 84.0446C76.5828 80.0139 76.583 73.4786 72.5521 69.4479C68.5214 65.4171 61.9861 65.4171 57.9554 69.4479C57.6829 69.7203 55.7159 71.6873 52.8217 74.5816L27.9033 99.4999L52.8217 124.418C55.4072 127.004 57.3971 128.994 57.9554 129.552C61.9861 133.583 68.5214 133.583 72.5521 129.552C76.583 125.521 76.5828 118.986 72.5521 114.955L67.4182 109.822H74.6785C80.3789 109.821 85.0001 105.2 85.0001 99.4999Z" fill="white"/>
<path d="M52.8216 74.5817V67.3216C52.8216 61.6211 48.2005 57 42.5 57C36.7997 57 32.1784 61.6211 32.1784 67.3216V74.5818L27.0447 69.4481C23.014 65.4174 16.4787 65.4172 12.448 69.4481C8.41722 73.4789 8.41722 80.0141 12.448 84.0449C12.7204 84.3173 14.6874 86.2843 17.5817 89.1786H10.3214C4.62113 89.1784 0 93.7995 0 99.5C0 105.2 4.62113 109.822 10.3214 109.822H17.5817C14.9961 112.407 13.0062 114.397 12.448 114.955C8.41722 118.986 8.41722 125.521 12.448 129.552C16.4789 133.583 23.014 133.583 27.0447 129.552L32.1784 124.418V131.678C32.1784 137.379 36.7997 142 42.5 142C48.2005 142 52.8216 137.379 52.8216 131.678V124.418C39.0595 110.656 39.0595 88.3438 52.8216 74.5817Z" fill="#54A0B4"/>
</g>
<path d="M37.3948 330.763L42.3051 346.984C42.4897 347.595 42.9669 348 43.5004 348C44.0339 348 44.5111 347.595 44.6957 346.984L49.6059 330.763C53.5805 317.631 62.0766 307.28 72.8538 302.438L86.1671 296.455C86.6676 296.231 87 295.649 87 294.999C87 294.349 86.6676 293.768 86.1671 293.543L72.853 287.56C62.0759 282.717 53.5797 272.367 49.6059 259.236L44.6957 243.015C44.5111 242.405 44.0339 242 43.5004 242C42.9669 242 42.4897 242.405 42.3051 243.015L37.3948 259.236C33.4203 272.367 24.9249 282.717 14.147 287.56L0.832881 293.543C0.332402 293.768 0 294.349 0 294.999C0 295.649 0.332402 296.231 0.832881 296.455L14.1462 302.438C24.9241 307.28 33.4203 317.631 37.3948 330.763Z" fill="#FFDB56"/>
<g clip-path="url(#clip1_167_757)">
<path d="M85.0001 490.5C85.0001 484.799 80.3789 480.178 74.6786 480.178H67.4184L72.5521 475.045C76.5828 471.014 76.583 464.479 72.5521 460.448C68.5214 456.417 61.9861 456.417 57.9554 460.448C57.6829 460.72 55.7159 462.687 52.8217 465.582L27.9033 490.5L52.8217 515.418C55.4072 518.004 57.3971 519.994 57.9554 520.552C61.9861 524.583 68.5214 524.583 72.5521 520.552C76.583 516.521 76.5828 509.986 72.5521 505.955L67.4182 500.822H74.6785C80.3789 500.821 85.0001 496.2 85.0001 490.5Z" fill="white"/>
<path d="M52.8216 465.582V458.322C52.8216 452.621 48.2005 448 42.5 448C36.7997 448 32.1784 452.621 32.1784 458.322V465.582L27.0447 460.448C23.014 456.417 16.4787 456.417 12.448 460.448C8.41722 464.479 8.41722 471.014 12.448 475.045C12.7204 475.317 14.6874 477.284 17.5817 480.179H10.3214C4.62113 480.178 0 484.8 0 490.5C0 496.2 4.62113 500.822 10.3214 500.822H17.5817C14.9961 503.407 13.0062 505.397 12.448 505.955C8.41722 509.986 8.41722 516.521 12.448 520.552C16.4789 524.583 23.014 524.583 27.0447 520.552L32.1784 515.418V522.678C32.1784 528.379 36.7997 533 42.5 533C48.2005 533 52.8216 528.379 52.8216 522.678V515.418C39.0595 501.656 39.0595 479.344 52.8216 465.582Z" fill="#D98656"/>
</g>
<defs>
<clipPath id="clip0_167_757">
<rect width="85" height="85" fill="white" transform="translate(0 57)"/>
</clipPath>
<clipPath id="clip1_167_757">
<rect width="85" height="85" fill="white" transform="translate(0 448)"/>
</clipPath>
</defs>
</svg>
