<svg width="503" height="145" viewBox="0 0 503 145" fill="none" xmlns="http://www.w3.org/2000/svg">
<path d="M20 41.1398C45.8647 43.7465 42.6316 22.1327 37.782 11L54.594 19.9605L467.782 11L455.82 51.7295L493 126.672L127.338 145L31.6391 107.122C34.2256 98.5684 43.817 82.0051 37.782 66.3921L20 41.1398Z" fill="#917800"/>
<path d="M5 34.0152C32.013 36.5246 28.6364 15.7173 23.5714 5L41.1299 13.6261L472.662 5L460.169 44.2097L499 116.356L117.104 134L17.1558 97.535C19.8571 89.3009 29.8745 73.3556 23.5714 58.3252L5 34.0152Z" stroke="black" stroke-width="4" stroke-dasharray="5 5"/>
<path d="M130.232 94.64C128.888 94.64 128.216 93.808 128.216 92.144V53.104H158.296V92.144C158.296 93.808 157.624 94.64 156.28 94.64C154.936 94.64 154.264 93.808 154.264 92.144V57.136H132.248V92.144C132.248 93.808 131.576 94.64 130.232 94.64ZM170.7 94.64C169.356 94.64 168.684 93.8613 168.684 92.304V55.536C168.684 53.808 169.313 52.944 170.572 52.944H182.316C187.308 52.944 190.956 53.6907 193.26 55.184C195.564 56.656 196.716 59.184 196.716 62.768C196.716 66.096 195.745 68.656 193.804 70.448C191.863 72.2187 188.993 73.104 185.196 73.104H172.716V92.304C172.716 93.8613 172.044 94.64 170.7 94.64ZM172.716 69.072H182.316C184.769 69.072 186.753 68.9333 188.268 68.656C189.804 68.3787 190.924 67.8027 191.628 66.928C192.332 66.0533 192.684 64.7307 192.684 62.96C192.684 61.3387 192.364 60.1013 191.724 59.248C191.105 58.3733 190.039 57.776 188.524 57.456C187.031 57.136 184.961 56.976 182.316 56.976H172.716V69.072ZM217.984 94.768C214.933 94.768 212.256 94.1493 209.952 92.912C207.648 91.6533 205.845 89.872 204.544 87.568C203.264 85.264 202.624 82.5333 202.624 79.376V67.92C202.624 64.7413 203.264 62.0107 204.544 59.728C205.845 57.424 207.648 55.6533 209.952 54.416C212.256 53.1573 214.933 52.528 217.984 52.528C221.034 52.528 223.712 53.1573 226.016 54.416C228.341 55.6533 230.144 57.424 231.424 59.728C232.704 62.032 233.344 64.7627 233.344 67.92V79.376C233.344 82.4907 232.714 85.2 231.456 87.504C230.197 89.808 228.416 91.6 226.112 92.88C223.808 94.1387 221.098 94.768 217.984 94.768ZM217.984 90.736C221.589 90.736 224.373 89.7333 226.336 87.728C228.32 85.7227 229.312 82.9067 229.312 79.28V68.016C229.312 64.3467 228.33 61.52 226.368 59.536C224.426 57.552 221.632 56.56 217.984 56.56C214.4 56.56 211.616 57.5627 209.632 59.568C207.648 61.552 206.656 64.368 206.656 68.016V79.28C206.656 82.9067 207.648 85.7227 209.632 87.728C211.616 89.7333 214.4 90.736 217.984 90.736ZM244.322 94.192C243.063 94.192 242.434 93.328 242.434 91.6V55.696C242.434 53.968 243.063 53.104 244.322 53.104H270.626C272.311 53.104 273.154 53.8187 273.154 55.248C273.154 56.5067 272.311 57.136 270.626 57.136H246.466V69.072H262.914C264.749 69.072 265.666 69.7867 265.666 71.216C265.666 72.4747 264.749 73.104 262.914 73.104H246.466V90.16H270.626C272.311 90.16 273.154 90.8747 273.154 92.304C273.154 93.5627 272.311 94.192 270.626 94.192H244.322ZM283.231 94.64C282.612 94.64 282.121 94.4267 281.759 94C281.417 93.5947 281.247 93.0293 281.247 92.304V57.52C281.247 56.7733 281.428 56.176 281.791 55.728C282.153 55.28 282.665 55.056 283.327 55.056C284.628 55.056 285.279 55.8773 285.279 57.52V73.04H290.943C291.668 73.04 292.425 72.6453 293.215 71.856C294.025 71.0453 294.879 69.9573 295.775 68.592C296.692 67.2267 297.652 65.68 298.655 63.952C299.231 62.9493 299.86 61.9253 300.543 60.88C301.225 59.8347 301.961 58.864 302.751 57.968C303.561 57.072 304.436 56.3573 305.375 55.824C306.335 55.2693 307.359 54.992 308.447 54.992C310.196 54.992 311.071 55.7067 311.071 57.136C311.071 57.9253 310.804 58.416 310.271 58.608C309.737 58.8 309.14 58.9387 308.479 59.024C307.241 59.1733 306.196 59.792 305.343 60.88C304.489 61.968 303.529 63.4293 302.463 65.264C301.524 66.9067 300.756 68.24 300.159 69.264C299.561 70.2667 299.028 71.1093 298.559 71.792C298.111 72.4533 297.609 73.072 297.055 73.648C296.5 74.2027 295.775 74.8533 294.878 75.6L294.815 74.448C295.967 75.3653 296.969 76.336 297.823 77.36C298.697 78.384 299.508 79.4933 300.255 80.688C301.023 81.8827 301.823 83.1947 302.655 84.624C303.871 86.6293 304.884 88.0907 305.695 89.008C306.527 89.904 307.476 90.4373 308.543 90.608C308.905 90.6507 309.279 90.7147 309.663 90.8C310.068 90.8853 310.399 91.0667 310.655 91.344C310.932 91.6 311.071 92.0267 311.071 92.624C311.071 93.968 310.239 94.64 308.575 94.64C307.039 94.64 305.545 94.064 304.095 92.912C302.665 91.76 301.279 90.2347 299.935 88.336C299.423 87.5253 298.879 86.672 298.303 85.776C297.748 84.88 297.193 84.0053 296.639 83.152C295.38 81.0827 294.281 79.5573 293.343 78.576C292.404 77.5733 291.465 77.072 290.527 77.072H285.279V92.304C285.279 93.008 285.097 93.5733 284.735 94C284.372 94.4267 283.871 94.64 283.231 94.64ZM329.148 94.64C328.465 94.64 327.932 94.4373 327.548 94.032C327.185 93.6267 327.004 93.0507 327.004 92.304V57.136H317.436C316.668 57.136 316.06 56.9653 315.612 56.624C315.185 56.2613 314.972 55.76 314.972 55.12C314.972 54.48 315.185 53.9893 315.612 53.648C316.06 53.2853 316.668 53.104 317.436 53.104H340.86C342.503 53.104 343.324 53.776 343.324 55.12C343.324 56.464 342.503 57.136 340.86 57.136H331.388V92.304C331.388 93.0293 331.185 93.5947 330.78 94C330.396 94.4267 329.852 94.64 329.148 94.64ZM351.947 94.64C350.688 94.64 350.059 93.7867 350.059 92.08V55.44C350.059 53.8827 350.731 53.104 352.075 53.104C353.419 53.104 354.091 53.872 354.091 55.408V63.824H363.691C366.464 63.824 368.939 64.5173 371.115 65.904C373.291 67.2693 374.998 69.1253 376.235 71.472C377.472 73.7973 378.091 76.4 378.091 79.28C378.091 82.16 377.472 84.7627 376.235 87.088C374.998 89.392 373.291 91.2267 371.115 92.592C368.96 93.9573 366.486 94.64 363.691 94.64H351.947ZM354.091 90.608H363.691C365.824 90.608 367.67 90.1173 369.227 89.136C370.784 88.1333 371.979 86.7787 372.811 85.072C373.643 83.344 374.059 81.4133 374.059 79.28C374.059 77.1253 373.632 75.184 372.779 73.456C371.947 71.728 370.752 70.3627 369.195 69.36C367.659 68.3573 365.824 67.856 363.691 67.856H354.091V90.608ZM382.635 94.64C381.291 94.64 380.619 93.8613 380.619 92.304V55.056C380.619 53.456 381.291 52.656 382.635 52.656C383.979 52.656 384.651 53.456 384.651 55.056V92.304C384.651 93.8613 383.979 94.64 382.635 94.64Z" fill="black"/>
</svg>
