<svg width="150" height="150" viewBox="0 0 150 150" fill="none" xmlns="http://www.w3.org/2000/svg">
<g clip-path="url(#clip0_167_785)">
<path d="M26.5625 1.20902e-05H123.438C126.927 -0.00336079 130.382 0.699013 133.606 2.06694C136.831 3.43486 139.76 5.44148 142.227 7.97195C144.695 10.5024 146.651 13.5071 147.985 16.8139C149.318 20.1208 150.003 23.665 150 27.2436V122.756C150.003 126.335 149.318 129.879 147.985 133.186C146.651 136.493 144.695 139.498 142.227 142.028C139.76 144.559 136.831 146.565 133.606 147.933C130.382 149.301 126.927 150.003 123.438 150H26.5625C23.0733 150.003 19.6178 149.301 16.3936 147.933C13.1694 146.565 10.2399 144.559 7.77265 142.028C5.30544 139.498 3.34899 136.493 2.01526 133.186C0.681538 129.879 -0.00327677 126.335 1.1788e-05 122.756V27.2436C-0.00327677 23.665 0.681538 20.1208 2.01526 16.8139C3.34899 13.5071 5.30544 10.5024 7.77265 7.97195C10.2399 5.44148 13.1694 3.43486 16.3936 2.06694C19.6178 0.699013 23.0733 -0.00336079 26.5625 1.20902e-05Z" fill="#000B1D"/>
<path d="M74.789 24.75C48.7889 24.75 50.4126 36.0252 50.4126 36.0252L50.4415 47.7061H75.2527V51.2133H40.5866C40.5866 51.2133 23.9492 49.3265 23.9492 75.5608C23.9492 101.795 38.4707 100.865 38.4707 100.865H47.1372V88.691C47.1372 88.691 46.6701 74.1695 61.4269 74.1695C76.1836 74.1695 86.0352 74.1695 86.0352 74.1695C86.0352 74.1695 99.861 74.393 99.861 60.8074C99.861 47.2218 99.861 38.344 99.861 38.344C99.861 38.344 101.96 24.75 74.789 24.75ZM61.108 32.6049C63.5766 32.6049 65.5717 34.6001 65.5717 37.0686C65.5717 39.5372 63.5766 41.5323 61.108 41.5323C58.6395 41.5323 56.6443 39.5372 56.6443 37.0686C56.6443 34.6001 58.6395 32.6049 61.108 32.6049Z" fill="#54A0B4"/>
<path d="M75.5276 126.635C101.528 126.635 99.904 115.36 99.904 115.36L99.8751 103.679H75.0639V100.172H109.73C109.73 100.172 126.367 102.058 126.367 75.8241C126.367 49.5899 111.846 50.5202 111.846 50.5202H103.179V62.6939C103.179 62.6939 103.647 77.2154 88.8897 77.2154C74.133 77.2154 64.2814 77.2154 64.2814 77.2154C64.2814 77.2154 50.4556 76.9919 50.4556 90.5775C50.4556 104.163 50.4556 113.041 50.4556 113.041C50.4556 113.041 48.3564 126.635 75.5276 126.635ZM89.2086 118.78C86.74 118.78 84.7449 116.785 84.7449 114.316C84.7449 111.848 86.74 109.853 89.2086 109.853C91.6771 109.853 93.6723 111.848 93.6723 114.316C93.6723 116.785 91.6771 118.78 89.2086 118.78Z" fill="#FFDB56"/>
</g>
<defs>
<clipPath id="clip0_167_785">
<rect width="150" height="150" fill="white"/>
</clipPath>
</defs>
</svg>
