<svg width="103" height="106" viewBox="0 0 103 106" fill="none" xmlns="http://www.w3.org/2000/svg">
<path d="M35.0095 7.11216C36.3051 0.609295 44.4949 -1.58515 48.8684 3.3987L63.8729 20.4974C65.6096 22.4765 68.2089 23.4743 70.8238 23.1656L93.4156 20.4988C100.001 19.7215 104.618 26.8323 101.23 32.5318L89.6048 52.0858C88.2592 54.349 88.1135 57.1295 89.2151 59.521L98.7327 80.183C101.507 86.2054 96.171 92.7947 89.7033 91.3333L67.5141 86.3196C64.9458 85.7393 62.2564 86.4599 60.3223 88.2466L43.6127 103.683C38.7422 108.183 30.8266 105.144 30.2179 98.5414L28.1294 75.8889C27.8876 73.267 26.3712 70.9319 24.0743 69.6446L4.2296 58.523C-1.55464 55.2813 -1.11088 46.8142 4.98052 44.1949L25.879 35.2085C28.2979 34.1684 30.0501 32.0046 30.5646 29.4223L35.0095 7.11216Z" fill="#DBB732"/>
</svg>
