<svg width="265" height="265" viewBox="0 0 265 265" fill="none" xmlns="http://www.w3.org/2000/svg">
<path d="M95.234 20.7034C96.2891 20.7014 97.3052 21.1022 98.0747 21.8241C98.8443 22.5459 99.3092 23.5343 99.3747 24.5874C99.4243 25.3741 104.878 103.056 166.743 120.236C167.616 120.477 168.387 120.998 168.936 121.719C169.485 122.44 169.782 123.321 169.782 124.227C169.782 125.134 169.485 126.015 168.936 126.736C168.387 127.457 167.616 127.978 166.743 128.219C104.869 145.378 99.416 223.06 99.3746 223.847C99.3746 224.945 98.9384 225.998 98.1619 226.775C97.3854 227.551 96.3322 227.987 95.234 227.987C94.1358 227.987 93.0827 227.551 92.3061 226.775C91.5296 225.998 91.0934 224.945 91.0934 223.847C91.0437 223.06 85.5905 145.378 23.7254 128.198C22.8518 127.957 22.0813 127.436 21.5322 126.715C20.9831 125.994 20.6858 125.113 20.6858 124.207C20.6858 123.3 20.9831 122.419 21.5322 121.698C22.0813 120.977 22.8518 120.456 23.7254 120.215C85.5988 103.06 91.052 25.3782 91.0934 24.5915C91.1578 23.5377 91.6223 22.5483 92.392 21.8256C93.1616 21.1029 94.1783 20.7015 95.234 20.7034ZM153.132 124.219C116.608 108.559 101.445 72.4613 95.234 48.4208C89.0231 72.4613 73.8601 108.559 37.3357 124.219C73.8601 139.879 89.0231 175.977 95.234 200.017C101.445 175.977 116.608 139.879 153.132 124.219Z" fill="#917800"/>
<path d="M215.312 33.125C216.368 33.123 217.385 33.5244 218.154 34.2471C218.924 34.9698 219.388 35.9592 219.453 37.013C219.478 37.4271 222.314 78.1915 253.717 87.1146C254.583 87.3606 255.346 87.8827 255.889 88.6015C256.433 89.3204 256.727 90.1968 256.727 91.0979C256.727 91.9989 256.433 92.8753 255.889 93.5942C255.346 94.3131 254.583 94.8351 253.717 95.0812C222.219 104.025 219.478 144.769 219.457 145.183C219.391 146.236 218.925 147.224 218.154 147.945C217.384 148.666 216.367 149.066 215.312 149.062C214.256 149.064 213.239 148.662 212.469 147.939C211.699 147.215 211.235 146.225 211.172 145.17C211.147 144.756 208.31 103.992 176.908 95.0687C176.041 94.8227 175.278 94.3006 174.735 93.5818C174.192 92.8629 173.898 91.9865 173.898 91.0854C173.898 90.1844 174.192 89.308 174.735 88.5891C175.278 87.8702 176.041 87.3482 176.908 87.1022C208.406 78.1584 211.147 37.4147 211.167 37.0006C211.235 35.9483 211.701 34.9614 212.472 34.2412C213.242 33.521 214.258 33.1218 215.312 33.125ZM241.56 91.0937C228.835 83.626 219.445 71.5775 215.312 57.4139C211.179 71.5774 201.79 83.626 189.065 91.0937C201.79 98.5615 211.179 110.61 215.312 124.774C219.445 110.61 228.835 98.5615 241.56 91.0937Z" fill="#917800"/>
<path d="M182.188 161.485C183.24 161.482 184.254 161.881 185.023 162.599C185.792 163.318 186.259 164.302 186.329 165.352C186.407 166.462 188.527 192.891 212.195 198.891C213.09 199.116 213.885 199.633 214.453 200.36C215.021 201.088 215.329 201.985 215.329 202.908C215.329 203.831 215.021 204.727 214.453 205.455C213.885 206.182 213.09 206.7 212.195 206.924C188.399 212.92 186.329 240.157 186.329 240.426C186.329 241.524 185.892 242.577 185.116 243.354C184.339 244.13 183.286 244.566 182.188 244.566C181.09 244.566 180.037 244.13 179.26 243.354C178.484 242.577 178.047 241.524 178.047 240.426C177.969 239.316 175.849 212.891 152.181 206.907C151.286 206.683 150.491 206.166 149.923 205.438C149.355 204.711 149.047 203.814 149.047 202.891C149.047 201.968 149.355 201.071 149.923 200.344C150.491 199.616 151.286 199.099 152.181 198.875C175.849 192.896 177.969 166.466 178.047 165.336C178.121 164.288 178.589 163.308 179.358 162.593C180.127 161.878 181.138 161.482 182.188 161.485ZM200.075 202.891C191.941 198.05 185.648 190.639 182.188 181.828C178.728 190.639 172.435 198.05 164.3 202.891C172.435 207.732 178.728 215.143 182.188 223.954C185.648 215.143 191.941 207.732 200.075 202.891Z" fill="#917800"/>
<path d="M33.1253 157.343C34.1818 157.341 35.199 157.743 35.9687 158.467C36.7385 159.191 37.2026 160.181 37.266 161.236C37.3198 162.064 38.8021 182.034 54.934 186.493C55.8077 186.734 56.5781 187.255 57.1272 187.976C57.6763 188.697 57.9736 189.579 57.9736 190.485C57.9736 191.391 57.6763 192.272 57.1272 192.994C56.5781 193.715 55.8077 194.236 54.934 194.476C38.6945 198.928 37.266 219.494 37.266 219.701C37.266 220.799 36.8297 221.853 36.0532 222.629C35.2767 223.406 34.2235 223.842 33.1253 223.842C32.0272 223.842 30.974 223.406 30.1975 222.629C29.4209 221.853 28.9847 220.799 28.9847 219.701C28.9309 218.873 27.4485 198.903 11.3167 194.443C10.443 194.202 9.67253 193.681 9.12346 192.96C8.57439 192.239 8.27704 191.358 8.27704 190.452C8.27704 189.546 8.57439 188.664 9.12346 187.943C9.67253 187.222 10.443 186.701 11.3167 186.46C27.5562 182.009 28.9847 161.443 28.9847 161.236C29.0481 160.181 29.5122 159.191 30.2819 158.467C31.0517 157.743 32.0689 157.341 33.1253 157.343ZM44.0152 190.468C39.2574 187.114 35.4948 182.536 33.1253 177.218C30.7559 182.536 26.9932 187.114 22.2355 190.468C26.9932 193.823 30.7559 198.401 33.1253 203.718C35.4948 198.401 39.2574 193.823 44.0152 190.468Z" fill="#917800"/>
</svg>
