<svg width="191" height="191" viewBox="0 0 191 191" fill="none" xmlns="http://www.w3.org/2000/svg">
<path d="M68.6411 14.9219C69.4016 14.9205 70.1339 15.2094 70.6886 15.7296C71.2432 16.2499 71.5783 16.9623 71.6255 17.7213C71.6613 18.2883 75.5917 74.2782 120.181 86.6604C120.811 86.834 121.366 87.2095 121.762 87.7292C122.158 88.2489 122.372 88.8841 122.372 89.5373C122.372 90.1905 122.158 90.8257 121.762 91.3454C121.366 91.8651 120.811 92.2405 120.181 92.4142C75.5857 104.781 71.6553 160.771 71.6255 161.338C71.6255 162.13 71.311 162.889 70.7514 163.449C70.1917 164.008 69.4326 164.323 68.6411 164.323C67.8496 164.323 67.0905 164.008 66.5308 163.449C65.9711 162.889 65.6567 162.13 65.6567 161.338C65.6209 160.771 61.6905 104.781 17.1009 92.3993C16.4712 92.2256 15.9159 91.8501 15.5202 91.3304C15.1244 90.8108 14.9101 90.1756 14.9101 89.5224C14.9101 88.8692 15.1244 88.234 15.5202 87.7143C15.9159 87.1946 16.4712 86.8191 17.1009 86.6454C61.6964 74.2812 65.6269 18.2913 65.6567 17.7243C65.7031 16.9647 66.0379 16.2516 66.5927 15.7307C67.1474 15.2098 67.8801 14.9205 68.6411 14.9219ZM110.372 89.5313C84.0464 78.2444 73.1177 52.2266 68.6411 34.8994C64.1645 52.2266 53.2357 78.2444 26.9106 89.5313C53.2357 100.818 64.1645 126.836 68.6411 144.163C73.1177 126.836 84.0464 100.818 110.372 89.5313Z" fill="#917800"/>
<path d="M155.188 23.875C155.948 23.8736 156.681 24.1629 157.236 24.6838C157.791 25.2047 158.126 25.9178 158.172 26.6773C158.19 26.9758 160.234 56.3569 182.868 62.7883C183.492 62.9656 184.042 63.3418 184.434 63.86C184.825 64.3781 185.037 65.0098 185.037 65.6592C185.037 66.3086 184.825 66.9403 184.434 67.4585C184.042 67.9766 183.492 68.3529 182.868 68.5302C160.165 74.9764 158.19 104.343 158.175 104.641C158.127 105.4 157.791 106.112 157.236 106.632C156.681 107.152 155.948 107.44 155.188 107.437C154.426 107.439 153.693 107.149 153.138 106.628C152.583 106.106 152.249 105.392 152.203 104.632C152.185 104.334 150.141 74.9526 127.507 68.5212C126.883 68.3439 126.333 67.9676 125.941 67.4495C125.55 66.9314 125.338 66.2997 125.338 65.6503C125.338 65.0008 125.55 64.3691 125.941 63.851C126.333 63.3329 126.883 62.9566 127.507 62.7793C150.21 56.333 152.185 26.9668 152.2 26.6684C152.249 25.9099 152.585 25.1986 153.14 24.6795C153.695 24.1604 154.428 23.8727 155.188 23.875ZM174.105 65.6562C164.934 60.2738 158.166 51.5898 155.188 41.3813C152.209 51.5898 145.441 60.2738 136.27 65.6562C145.441 71.0386 152.209 79.7227 155.188 89.9311C158.166 79.7227 164.934 71.0386 174.105 65.6562Z" fill="#917800"/>
<path d="M131.313 116.39C132.071 116.389 132.802 116.676 133.356 117.194C133.911 117.712 134.247 118.421 134.297 119.178C134.354 119.978 135.882 139.027 152.94 143.351C153.586 143.513 154.158 143.886 154.568 144.41C154.977 144.935 155.199 145.581 155.199 146.246C155.199 146.911 154.977 147.558 154.568 148.082C154.158 148.607 153.586 148.979 152.94 149.141C135.789 153.462 134.297 173.094 134.297 173.288C134.297 174.079 133.983 174.838 133.423 175.398C132.863 175.958 132.104 176.272 131.313 176.272C130.521 176.272 129.762 175.958 129.202 175.398C128.643 174.838 128.328 174.079 128.328 173.288C128.272 172.488 126.744 153.442 109.685 149.129C109.04 148.967 108.467 148.595 108.058 148.07C107.648 147.546 107.426 146.899 107.426 146.234C107.426 145.569 107.648 144.923 108.058 144.398C108.467 143.874 109.04 143.501 109.685 143.339C126.744 139.03 128.272 119.981 128.328 119.166C128.381 118.411 128.719 117.705 129.273 117.189C129.827 116.674 130.556 116.389 131.313 116.39ZM144.205 146.234C138.342 142.745 133.806 137.404 131.313 131.053C128.819 137.404 124.283 142.745 118.42 146.234C124.283 149.724 128.819 155.065 131.313 161.416C133.806 155.065 138.342 149.724 144.205 146.234Z" fill="#917800"/>
<path d="M23.8747 113.406C24.6361 113.405 25.3692 113.695 25.9241 114.216C26.4789 114.738 26.8133 115.452 26.859 116.212C26.8978 116.809 27.9662 131.202 39.5934 134.416C40.223 134.59 40.7784 134.966 41.1741 135.485C41.5699 136.005 41.7842 136.64 41.7842 137.293C41.7842 137.947 41.5699 138.582 41.1741 139.101C40.7784 139.621 40.223 139.997 39.5934 140.17C27.8886 143.378 26.859 158.202 26.859 158.351C26.859 159.143 26.5446 159.902 25.9849 160.461C25.4252 161.021 24.6662 161.335 23.8746 161.335C23.0831 161.335 22.3241 161.021 21.7644 160.461C21.2047 159.902 20.8903 159.143 20.8903 158.351C20.8515 157.754 19.7831 143.361 8.15595 140.146C7.52625 139.973 6.97093 139.597 6.57518 139.078C6.17943 138.558 5.96512 137.923 5.96512 137.269C5.96512 136.616 6.17943 135.981 6.57518 135.461C6.97093 134.942 7.52626 134.566 8.15595 134.393C19.8607 131.184 20.8903 116.361 20.8903 116.212C20.936 115.452 21.2704 114.738 21.8253 114.216C22.3801 113.695 23.1132 113.405 23.8747 113.406ZM31.7236 137.281C28.2944 134.864 25.5825 131.564 23.8747 127.731C22.1668 131.564 19.4549 134.864 16.0257 137.281C19.4549 139.699 22.1668 142.999 23.8747 146.831C25.5825 142.999 28.2944 139.699 31.7236 137.281Z" fill="#917800"/>
</svg>
