<svg width="88" height="112" viewBox="0 0 88 112" fill="none" xmlns="http://www.w3.org/2000/svg">
<path d="M87.1568 54.4598L73.6911 48.1394C62.7892 43.0226 54.1953 32.0858 50.1758 18.2115L45.209 1.07223C45.0223 0.427928 44.5396 0 44 0C43.4604 0 42.9777 0.427928 42.791 1.07223L37.8242 18.2106C33.8039 32.0858 25.2101 43.0226 14.3089 48.1394L0.842462 54.4598C0.336226 54.6974 0 55.3117 0 55.9986C0 56.6854 0.336226 57.2997 0.842462 57.5374L14.3097 63.8597C25.2108 68.9764 33.8039 79.9132 37.8242 93.7875L42.791 110.928C42.9777 111.572 43.4604 112 44 112C44.5396 112 45.0223 111.572 45.209 110.928L50.1758 93.7875C54.1961 79.9132 62.7892 68.9755 73.6903 63.8597L87.1575 57.5374C87.6638 57.2997 88 56.6854 88 55.9986C88 55.3117 87.663 54.6974 87.1568 54.4598Z" fill="#54A0B4"/>
</svg>
