<svg width="219" height="215" viewBox="0 0 219 215" fill="none" xmlns="http://www.w3.org/2000/svg">
<path d="M156.255 2.04459C161.797 -1.59645 169.108 2.69734 168.627 9.31057L164.104 71.5306C163.913 74.1567 165.027 76.7086 167.082 78.3547L215.773 117.354C220.948 121.499 219.124 129.78 212.686 131.366L152.113 146.291C149.557 146.921 147.474 148.769 146.543 151.232L124.499 209.591C122.156 215.794 113.717 216.618 110.219 210.985L77.3063 157.99C75.9171 155.753 73.5163 154.343 70.8862 154.219L8.57084 151.288C1.94749 150.976 -1.44351 143.205 2.83258 138.137L43.0639 90.4589C44.762 88.4465 45.3611 85.7274 44.666 83.1878L28.1974 23.0166C26.447 16.6211 32.7899 10.9947 38.9309 13.4955L96.7079 37.0243C99.1465 38.0174 101.918 37.7469 104.118 36.3011L156.255 2.04459Z" fill="#917800"/>
</svg>
