<svg width="67" height="68" viewBox="0 0 67 68" fill="none" xmlns="http://www.w3.org/2000/svg">
<path d="M36.772 2.914C41.7641 -1.45007 49.5933 1.80448 50.0207 8.42137L50.6278 17.8208C50.7975 20.4484 52.2492 22.8242 54.51 24.1741L62.5972 29.0027C68.2903 32.4018 67.6144 40.8536 61.4534 43.3048L52.7016 46.7867C50.2551 47.7601 48.4442 49.875 47.859 52.4422L45.7658 61.6257C44.2923 68.0906 36.0453 70.0595 31.8103 64.9576L25.7943 57.71C24.1125 55.684 21.5415 54.6153 18.9192 54.8521L9.53828 55.6992C2.93448 56.2956 -1.48654 49.0607 2.05702 43.4563L7.09076 35.4951C8.49792 33.2696 8.71987 30.4942 7.6843 28.0734L3.97978 19.4134C1.37194 13.3171 6.88658 6.87673 13.3117 8.51502L22.4387 10.8422C24.9901 11.4928 27.6983 10.8463 29.6806 9.11328L36.772 2.914Z" fill="#DCB39B"/>
</svg>
