<svg width="127" height="162" viewBox="0 0 127 162" fill="none" xmlns="http://www.w3.org/2000/svg">
<path d="M125.783 78.7721L106.35 69.6302C90.6162 62.2291 78.2137 46.4099 72.4128 26.3417L65.2449 1.55091C64.9754 0.618967 64.2788 0 63.5 0C62.7212 0 62.0246 0.618967 61.7551 1.55091L54.5872 26.3403C48.7852 46.4099 36.3827 62.2291 20.6504 69.6302L1.21583 78.7721C0.485235 79.1159 0 80.0045 0 80.9979C0 81.9913 0.485235 82.88 1.21583 83.2237L20.6515 92.3684C36.3838 99.7695 48.7852 115.589 54.5872 135.657L61.7551 160.449C62.0246 161.381 62.7212 162 63.5 162C64.2788 162 64.9754 161.381 65.2449 160.449L72.4128 135.657C78.2148 115.589 90.6162 99.7681 106.349 92.3684L125.784 83.2237C126.515 82.88 127 81.9913 127 80.9979C127 80.0045 126.514 79.1159 125.783 78.7721Z" fill="#917800"/>
</svg>
