<svg width="110" height="110" viewBox="0 0 110 110" fill="none" xmlns="http://www.w3.org/2000/svg">
<g opacity="0.7" clip-path="url(#clip0_167_809)">
<path d="M34.8387 91.0936C34.0834 91.0917 33.3377 90.9253 32.6532 90.6061C31.9688 90.2868 31.362 89.8224 30.8751 89.2451C30.3882 88.6678 30.0329 87.9913 29.8337 87.2628C29.6346 86.5343 29.5965 85.7712 29.722 85.0265L32.9549 66.2525C33.0034 65.973 32.9826 65.6859 32.8945 65.4163C32.8065 65.1466 32.6537 64.9027 32.4496 64.7057L18.7632 51.4111C18.0682 50.7366 17.5763 49.8806 17.3434 48.9405C17.1105 48.0004 17.1458 47.0138 17.4455 46.0928C17.7452 45.1718 18.2971 44.3533 19.0386 43.7303C19.7801 43.1072 20.6815 42.7046 21.6404 42.5682L40.5621 39.8319C40.8439 39.7912 41.1116 39.6828 41.3423 39.5161C41.5731 39.3494 41.7601 39.1293 41.8873 38.8746L50.347 21.7953C50.7772 20.9278 51.4413 20.1976 52.2642 19.6872C53.0872 19.1767 54.0364 18.9062 55.0048 18.9062C55.9732 18.9062 56.9223 19.1767 57.7453 19.6872C58.5683 20.1976 59.2323 20.9278 59.6626 21.7953L68.1223 38.8746C68.2495 39.1293 68.4364 39.3494 68.6672 39.5161C68.898 39.6828 69.1657 39.7912 69.4474 39.8319L88.364 42.5716C89.3229 42.7081 90.2242 43.1107 90.9658 43.7337C91.7073 44.3568 92.2592 45.1753 92.5589 46.0963C92.8585 47.0173 92.8939 48.0039 92.661 48.944C92.4281 49.8841 91.9362 50.74 91.2412 51.4146L77.5496 64.7091C77.3456 64.9062 77.193 65.1502 77.1049 65.4198C77.0168 65.6894 76.996 65.9765 77.0443 66.256L80.2773 85.0282C80.4392 85.9829 80.331 86.964 79.9648 87.8605C79.5987 88.757 78.9892 89.5333 78.2052 90.1017C77.4212 90.6702 76.4938 91.0081 75.5279 91.0774C74.562 91.1466 73.5959 90.9445 72.7388 90.4938L55.8212 81.6319C55.5682 81.4985 55.2865 81.4289 55.0005 81.4289C54.7145 81.4289 54.4328 81.4985 54.1798 81.6319L37.2587 90.4938C36.5129 90.8878 35.6821 91.0937 34.8387 91.0936ZM54.9996 22.3436C54.671 22.3382 54.3476 22.4271 54.068 22.5998C53.7883 22.7726 53.5641 23.0219 53.4218 23.3182L44.9621 40.3991C44.5888 41.1532 44.0376 41.8051 43.3561 42.2986C42.6745 42.7921 41.8832 43.1123 41.0502 43.2316L22.1337 45.9713C21.8078 46.0136 21.5008 46.1484 21.2492 46.3598C20.9976 46.5712 20.8118 46.8504 20.714 47.1641C20.6097 47.4728 20.5961 47.8048 20.6747 48.121C20.7533 48.4372 20.9208 48.7242 21.1574 48.9482L34.8456 62.2427C35.4491 62.8288 35.9008 63.5531 36.1617 64.353C36.4225 65.1529 36.4846 66.0042 36.3426 66.8335L33.1096 85.6091C33.0517 85.9287 33.0856 86.2582 33.2073 86.5593C33.3289 86.8605 33.5334 87.121 33.7971 87.3107C34.062 87.5081 34.3777 87.6257 34.7072 87.6498C35.0366 87.6738 35.3661 87.6033 35.6568 87.4464L52.5934 78.5846C53.3385 78.1934 54.1675 77.9891 55.0091 77.9891C55.8506 77.9891 56.6796 78.1934 57.4248 78.5846L74.3442 87.4464C74.6351 87.6025 74.9644 87.6725 75.2937 87.6485C75.623 87.6245 75.9386 87.5073 76.2038 87.3107C76.4675 87.121 76.672 86.8605 76.7937 86.5593C76.9154 86.2582 76.9492 85.9287 76.8913 85.6091L73.6566 66.8352C73.5145 66.0057 73.5765 65.154 73.8373 64.3538C74.0982 63.5537 74.55 62.8291 75.1537 62.2427L88.8418 48.9482C89.0784 48.7242 89.246 48.4372 89.3246 48.121C89.4032 47.8048 89.3895 47.4728 89.2852 47.1641C89.1875 46.8506 89.0021 46.5716 88.7508 46.3602C88.4995 46.1489 88.1929 46.0139 87.8673 45.9713L68.949 43.2316C68.1161 43.1123 67.3247 42.7921 66.6432 42.2986C65.9616 41.8051 65.4104 41.1532 65.0371 40.3991L56.5774 23.3182C56.4351 23.0219 56.2109 22.7726 55.9312 22.5998C55.6516 22.4271 55.3283 22.3382 54.9996 22.3436Z" fill="black"/>
<path d="M55 10.3125C54.5442 10.3125 54.107 10.1314 53.7847 9.80909C53.4623 9.48676 53.2812 9.04959 53.2812 8.59375V1.71875C53.2812 1.26291 53.4623 0.825738 53.7847 0.50341C54.107 0.181082 54.5442 0 55 0C55.4558 0 55.893 0.181082 56.2153 0.50341C56.5377 0.825738 56.7188 1.26291 56.7188 1.71875V8.59375C56.7188 9.04959 56.5377 9.48676 56.2153 9.80909C55.893 10.1314 55.4558 10.3125 55 10.3125Z" fill="black"/>
<path d="M42.9874 11.8936C42.6094 11.8933 42.242 11.7683 41.9422 11.5381C41.6423 11.3078 41.4268 10.9852 41.3288 10.62L39.5499 3.97877C39.4522 3.54536 39.5261 3.09093 39.7561 2.7108C39.9861 2.33067 40.3544 2.05438 40.7837 1.93989C41.213 1.82539 41.6699 1.88159 42.0587 2.09669C42.4474 2.31179 42.7378 2.66908 42.8688 3.09362L44.6495 9.73315C44.708 9.95118 44.7229 10.1786 44.6935 10.4024C44.6641 10.6262 44.5909 10.8421 44.478 11.0376C44.3652 11.2331 44.2149 11.4045 44.0358 11.5419C43.8568 11.6794 43.6524 11.7802 43.4343 11.8386C43.2884 11.8762 43.1381 11.8947 42.9874 11.8936Z" fill="black"/>
<path d="M31.7965 16.5291C31.4945 16.5293 31.1978 16.4501 30.9362 16.2992C30.6746 16.1483 30.4573 15.9312 30.3063 15.6697L26.8688 9.71593C26.7542 9.52038 26.6794 9.3041 26.6487 9.07952C26.618 8.85494 26.632 8.6265 26.6899 8.40736C26.7478 8.18822 26.8486 7.98271 26.9862 7.80265C27.1239 7.62259 27.2959 7.47155 27.4922 7.35821C27.6885 7.24487 27.9052 7.17148 28.13 7.14227C28.3548 7.11305 28.5831 7.12858 28.8019 7.18797C29.0206 7.24736 29.2255 7.34943 29.4046 7.48831C29.5838 7.62719 29.7337 7.80013 29.8457 7.99718L33.2832 13.9509C33.434 14.2121 33.5134 14.5083 33.5135 14.8099C33.5135 15.1114 33.4343 15.4077 33.2836 15.6689C33.133 15.9301 32.9163 16.1471 32.6552 16.2981C32.3942 16.4491 32.098 16.5287 31.7965 16.5291Z" fill="black"/>
<path d="M22.1852 23.9044C21.9594 23.9051 21.7358 23.8609 21.5272 23.7744C21.3186 23.688 21.1292 23.561 20.9701 23.4009L16.1094 18.5402C15.7963 18.2161 15.6231 17.7819 15.627 17.3313C15.6309 16.8806 15.8117 16.4495 16.1304 16.1309C16.449 15.8122 16.8801 15.6314 17.3308 15.6275C17.7814 15.6236 18.2156 15.7968 18.5397 16.1099L23.4004 20.9688C23.6407 21.2092 23.8043 21.5154 23.8706 21.8488C23.9369 22.1821 23.9028 22.5276 23.7728 22.8417C23.6427 23.1557 23.4225 23.4241 23.1399 23.6129C22.8573 23.8018 22.5251 23.9027 22.1852 23.9027V23.9044Z" fill="black"/>
<path d="M14.8091 33.5158C14.5074 33.5158 14.211 33.4363 13.9497 33.2855L7.99599 29.848C7.60445 29.6184 7.31959 29.2433 7.20358 28.8046C7.08757 28.3658 7.14983 27.8989 7.37677 27.5058C7.60371 27.1128 7.9769 26.8254 8.41491 26.7065C8.85292 26.5876 9.32019 26.6468 9.71474 26.8711L15.6685 30.3086C15.9961 30.4978 16.2522 30.7898 16.397 31.1393C16.5417 31.4889 16.5671 31.8764 16.4692 32.2419C16.3713 32.6073 16.1555 32.9303 15.8554 33.1606C15.5552 33.3909 15.1875 33.5158 14.8091 33.5158Z" fill="black"/>
<path d="M10.175 44.7083C10.0248 44.7081 9.87513 44.6885 9.72989 44.6499L3.0938 42.8692C2.8705 42.8157 2.66018 42.7181 2.47526 42.5819C2.29034 42.4458 2.13457 42.274 2.01715 42.0767C1.89972 41.8794 1.82302 41.6606 1.79158 41.4331C1.76014 41.2057 1.77459 40.9742 1.83408 40.7524C1.89357 40.5307 1.9969 40.3231 2.13796 40.1419C2.27902 39.9607 2.45495 39.8096 2.65536 39.6976C2.85578 39.5855 3.07662 39.5148 3.30483 39.4895C3.53305 39.4642 3.76402 39.4849 3.98411 39.5503L10.6254 41.3292C11.0283 41.4371 11.3782 41.6877 11.61 42.0345C11.8417 42.3813 11.9395 42.8005 11.885 43.214C11.8305 43.6275 11.6276 44.0072 11.3139 44.2821C11.0002 44.557 10.5973 44.7085 10.1802 44.7083H10.175Z" fill="black"/>
<path d="M8.59375 56.7188H1.71875C1.26291 56.7188 0.825738 56.5377 0.50341 56.2153C0.181082 55.893 0 55.4558 0 55C0 54.5442 0.181082 54.107 0.50341 53.7847C0.825738 53.4623 1.26291 53.2812 1.71875 53.2812H8.59375C9.04959 53.2812 9.48676 53.4623 9.80909 53.7847C10.1314 54.107 10.3125 54.5442 10.3125 55C10.3125 55.4558 10.1314 55.893 9.80909 56.2153C9.48676 56.5377 9.04959 56.7188 8.59375 56.7188Z" fill="black"/>
<path d="M3.53333 70.5081C3.11778 70.5055 2.71724 70.3525 2.40584 70.0773C2.09445 69.8022 1.89329 69.4235 1.8396 69.0114C1.78592 68.5994 1.88334 68.1818 2.11384 67.836C2.34435 67.4903 2.69231 67.2397 3.09333 67.1308L9.73458 65.3501C9.95261 65.2917 10.18 65.2767 10.4038 65.3062C10.6276 65.3356 10.8435 65.4088 11.039 65.5217C11.2345 65.6345 11.4059 65.7847 11.5433 65.9638C11.6808 66.1429 11.7816 66.3473 11.84 66.5653C11.8985 66.7833 11.9134 67.0108 11.884 67.2346C11.8546 67.4584 11.7814 67.6742 11.6685 67.8697C11.5557 68.0652 11.4054 68.2366 11.2264 68.374C11.0473 68.5115 10.8429 68.6123 10.6249 68.6708L3.97848 70.4497C3.83341 70.4891 3.68367 70.5088 3.53333 70.5081Z" fill="black"/>
<path d="M8.85832 83.3592C8.47998 83.3592 8.11222 83.2344 7.81206 83.004C7.51191 82.7737 7.29614 82.4508 7.19822 82.0853C7.10029 81.7199 7.12569 81.3323 7.27046 80.9828C7.41524 80.6332 7.6713 80.3412 7.99895 80.152L13.9527 76.7145C14.1482 76.5999 14.3645 76.5251 14.5891 76.4944C14.8137 76.4637 15.0421 76.4777 15.2613 76.5356C15.4804 76.5935 15.6859 76.6943 15.866 76.8319C16.046 76.9696 16.1971 77.1416 16.3104 77.3379C16.4238 77.5342 16.4971 77.751 16.5264 77.9757C16.5556 78.2005 16.54 78.4288 16.4807 78.6476C16.4213 78.8663 16.3192 79.0712 16.1803 79.2503C16.0414 79.4295 15.8685 79.5794 15.6714 79.6914L9.7177 83.1289C9.45667 83.2804 9.16012 83.3599 8.85832 83.3592Z" fill="black"/>
<path d="M17.3248 94.3939C16.9849 94.3938 16.6527 94.293 16.3701 94.1041C16.0876 93.9153 15.8673 93.6469 15.7373 93.3329C15.6072 93.0188 15.5732 92.6733 15.6395 92.34C15.7057 92.0066 15.8694 91.7004 16.1097 91.46L20.9686 86.5994C21.2911 86.2769 21.7285 86.0957 22.1846 86.0957C22.6407 86.0957 23.0781 86.2769 23.4006 86.5994C23.7231 86.9219 23.9043 87.3593 23.9043 87.8154C23.9043 88.2715 23.7231 88.7089 23.4006 89.0314L18.54 93.892C18.2175 94.2138 17.7804 94.3943 17.3248 94.3939Z" fill="black"/>
<path d="M28.3596 102.862C28.058 102.862 27.7618 102.782 27.5008 102.631C27.2398 102.48 27.0231 102.263 26.8724 102.002C26.7218 101.74 26.6425 101.444 26.6426 101.143C26.6427 100.841 26.7221 100.545 26.8728 100.284L30.3103 94.33C30.5399 93.9384 30.915 93.6536 31.3538 93.5376C31.7926 93.4216 32.2594 93.4838 32.6525 93.7108C33.0455 93.9377 33.3329 94.3109 33.4518 94.7489C33.5707 95.1869 33.5115 95.6542 33.2872 96.0487L29.8497 102.002C29.6987 102.264 29.4815 102.481 29.2199 102.632C28.9583 102.783 28.6616 102.862 28.3596 102.862Z" fill="black"/>
<path d="M41.2108 108.183C41.0604 108.184 40.9107 108.164 40.7656 108.125C40.3256 108.007 39.9505 107.719 39.7226 107.324C39.4948 106.93 39.4329 106.461 39.5504 106.021L41.3294 99.3798C41.3878 99.1617 41.4886 98.9573 41.6261 98.7783C41.7635 98.5992 41.9349 98.449 42.1304 98.3361C42.3259 98.2233 42.5418 98.1501 42.7656 98.1206C42.9894 98.0912 43.2168 98.1061 43.4348 98.1646C43.6529 98.2231 43.8572 98.3239 44.0363 98.4613C44.2154 98.5988 44.3656 98.7702 44.4785 98.9657C44.5913 99.1612 44.6645 99.377 44.694 99.6008C44.7234 99.8246 44.7084 100.052 44.65 100.27L42.8694 106.906C42.7721 107.272 42.5568 107.595 42.2569 107.826C41.957 108.057 41.5893 108.183 41.2108 108.183Z" fill="black"/>
<path d="M55 110C54.5442 110 54.107 109.819 53.7847 109.497C53.4623 109.174 53.2812 108.737 53.2812 108.281V101.406C53.2812 100.95 53.4623 100.513 53.7847 100.191C54.107 99.8686 54.5442 99.6875 55 99.6875C55.4558 99.6875 55.893 99.8686 56.2153 100.191C56.5377 100.513 56.7188 100.95 56.7188 101.406V108.281C56.7188 108.737 56.5377 109.174 56.2153 109.497C55.893 109.819 55.4558 110 55 110Z" fill="black"/>
<path d="M68.7898 108.183C68.4118 108.183 68.0444 108.058 67.7446 107.828C67.4447 107.597 67.2292 107.275 67.1313 106.91L65.3506 100.27C65.2922 100.052 65.2772 99.8246 65.3067 99.6008C65.3361 99.377 65.4093 99.1612 65.5222 98.9657C65.635 98.7702 65.7852 98.5988 65.9643 98.4613C66.1434 98.3239 66.3478 98.2231 66.5658 98.1646C66.7838 98.1061 67.0112 98.0912 67.2351 98.1206C67.4589 98.1501 67.6747 98.2233 67.8702 98.3361C68.265 98.564 68.5532 98.9394 68.6713 99.3798L70.4502 106.021C70.5678 106.461 70.5058 106.93 70.278 107.324C70.0501 107.719 69.675 108.007 69.235 108.125C69.09 108.164 68.9402 108.184 68.7898 108.183Z" fill="black"/>
<path d="M81.6402 102.862C81.3382 102.862 81.0415 102.783 80.7799 102.632C80.5183 102.481 80.3011 102.264 80.1501 102.003L76.7126 96.0489C76.5979 95.8534 76.5231 95.6371 76.4924 95.4125C76.4617 95.1879 76.4757 94.9595 76.5337 94.7404C76.5916 94.5212 76.6923 94.3157 76.83 94.1357C76.9677 93.9556 77.1396 93.8046 77.3359 93.6912C77.5322 93.5779 77.749 93.5045 77.9738 93.4753C78.1986 93.4461 78.4269 93.4616 78.6456 93.521C78.8644 93.5804 79.0692 93.6824 79.2484 93.8213C79.4275 93.9602 79.5774 94.1331 79.6895 94.3302L83.127 100.284C83.2777 100.545 83.3571 100.841 83.3572 101.143C83.3573 101.444 83.278 101.741 83.1274 102.002C82.9767 102.263 82.76 102.48 82.499 102.631C82.238 102.782 81.9418 102.862 81.6402 102.862Z" fill="black"/>
<path d="M92.6752 94.3939C92.2194 94.3938 91.7823 94.2127 91.46 93.8903L86.5994 89.0314C86.2769 88.7089 86.0957 88.2715 86.0957 87.8154C86.0957 87.3593 86.2769 86.9219 86.5994 86.5994C86.9219 86.2769 87.3593 86.0957 87.8154 86.0957C88.2715 86.0957 88.7089 86.2769 89.0314 86.5994L93.892 91.46C94.1323 91.7004 94.296 92.0066 94.3623 92.34C94.4286 92.6733 94.3945 93.0188 94.2645 93.3329C94.1344 93.6469 93.9142 93.9153 93.6316 94.1041C93.349 94.293 93.0168 94.3938 92.6769 94.3939H92.6752Z" fill="black"/>
<path d="M101.141 83.3592C100.84 83.3599 100.543 83.2804 100.282 83.1289L94.3282 79.6914C94.1312 79.5794 93.9582 79.4295 93.8194 79.2503C93.6805 79.0712 93.5784 78.8663 93.519 78.6476C93.4596 78.4288 93.4441 78.2005 93.4733 77.9757C93.5025 77.751 93.5759 77.5342 93.6893 77.3379C93.8026 77.1416 93.9536 76.9696 94.1337 76.8319C94.3138 76.6943 94.5193 76.5935 94.7384 76.5356C94.9576 76.4777 95.186 76.4637 95.4106 76.4944C95.6352 76.5251 95.8514 76.5999 96.047 76.7145L102.001 80.152C102.328 80.3412 102.584 80.6332 102.729 80.9828C102.874 81.3323 102.899 81.7199 102.801 82.0853C102.704 82.4508 102.488 82.7737 102.188 83.004C101.887 83.2344 101.52 83.3592 101.141 83.3592Z" fill="black"/>
<path d="M106.467 70.5081C106.316 70.5088 106.167 70.4891 106.022 70.4497L99.3802 68.6708C98.9399 68.5527 98.5645 68.2646 98.3366 67.8697C98.1087 67.4749 98.047 67.0056 98.1651 66.5653C98.2832 66.125 98.5713 65.7496 98.9662 65.5217C99.361 65.2938 99.8302 65.2321 100.271 65.3501L106.907 67.1308C107.308 67.2399 107.656 67.4908 107.887 67.8371C108.117 68.1834 108.214 68.6016 108.16 69.014C108.106 69.4264 107.904 69.8051 107.591 70.0799C107.279 70.3546 106.877 70.5068 106.462 70.5081H106.467Z" fill="black"/>
<path d="M108.281 56.7188H101.406C100.95 56.7188 100.513 56.5377 100.191 56.2153C99.8686 55.893 99.6875 55.4558 99.6875 55C99.6875 54.5442 99.8686 54.107 100.191 53.7847C100.513 53.4623 100.95 53.2812 101.406 53.2812H108.281C108.737 53.2812 109.174 53.4623 109.497 53.7847C109.819 54.107 110 54.5442 110 55C110 55.4558 109.819 55.893 109.497 56.2153C109.174 56.5377 108.737 56.7188 108.281 56.7188Z" fill="black"/>
<path d="M99.825 44.7083C99.4079 44.7085 99.005 44.557 98.6913 44.2821C98.3777 44.0072 98.1747 43.6275 98.1202 43.214C98.0657 42.8005 98.1635 42.3813 98.3952 42.0345C98.627 41.6877 98.9769 41.4371 99.3799 41.3292L106.021 39.5503C106.241 39.4849 106.472 39.4642 106.7 39.4895C106.929 39.5148 107.149 39.5855 107.35 39.6976C107.55 39.8096 107.726 39.9607 107.867 40.1419C108.008 40.3231 108.112 40.5307 108.171 40.7524C108.231 40.9742 108.245 41.2057 108.214 41.4331C108.182 41.6606 108.105 41.8794 107.988 42.0767C107.871 42.274 107.715 42.4458 107.53 42.5819C107.345 42.7181 107.135 42.8157 106.911 42.8692L100.27 44.6499C100.125 44.6885 99.9753 44.7081 99.825 44.7083Z" fill="black"/>
<path d="M95.1913 33.5158C94.813 33.5158 94.4452 33.3909 94.1451 33.1606C93.8449 32.9303 93.6291 32.6073 93.5312 32.2419C93.4333 31.8764 93.4587 31.4889 93.6035 31.1393C93.7483 30.7898 94.0043 30.4978 94.332 30.3086L100.286 26.8711C100.68 26.6468 101.148 26.5876 101.586 26.7065C102.024 26.8254 102.397 27.1128 102.624 27.5058C102.851 27.8989 102.913 28.3658 102.797 28.8046C102.681 29.2433 102.396 29.6184 102.004 29.848L96.0507 33.2855C95.7894 33.4363 95.493 33.5158 95.1913 33.5158Z" fill="black"/>
<path d="M87.8141 23.9044C87.4742 23.9044 87.142 23.8035 86.8594 23.6147C86.5768 23.4258 86.3566 23.1574 86.2265 22.8434C86.0965 22.5294 86.0624 22.1838 86.1287 21.8505C86.195 21.5171 86.3586 21.2109 86.5989 20.9705L91.4596 16.1099C91.7837 15.7968 92.2179 15.6236 92.6685 15.6275C93.1192 15.6314 93.5503 15.8122 93.8689 16.1309C94.1876 16.4495 94.3684 16.8806 94.3723 17.3313C94.3762 17.7819 94.203 18.2161 93.8899 18.5402L89.031 23.4009C88.8716 23.5612 88.682 23.6883 88.4731 23.7747C88.2642 23.8612 88.0402 23.9053 87.8141 23.9044Z" fill="black"/>
<path d="M78.2033 16.5293C77.9018 16.529 77.6056 16.4494 77.3446 16.2984C77.0835 16.1474 76.8668 15.9304 76.7162 15.6692C76.5655 15.408 76.4863 15.1117 76.4863 14.8101C76.4864 14.5086 76.5658 14.2124 76.7166 13.9512L80.1541 7.99746C80.3836 7.60591 80.7587 7.32106 81.1975 7.20505C81.6363 7.08904 82.1032 7.1513 82.4962 7.37823C82.8893 7.60517 83.1766 7.97837 83.2955 8.41638C83.4145 8.85439 83.3553 9.32165 83.131 9.71621L79.6935 15.67C79.5425 15.9315 79.3252 16.1486 79.0636 16.2995C78.802 16.4503 78.5053 16.5296 78.2033 16.5293Z" fill="black"/>
<path d="M67.0127 11.8939C66.8618 11.8938 66.7116 11.8741 66.5658 11.8354C66.3478 11.777 66.1434 11.6762 65.9643 11.5387C65.7852 11.4013 65.635 11.2299 65.5221 11.0344C65.4093 10.8389 65.3361 10.6231 65.3066 10.3992C65.2772 10.1754 65.2922 9.94799 65.3507 9.72996L67.1313 3.09387C67.2603 2.66641 67.5505 2.30592 67.9406 2.0887C68.3307 1.87148 68.79 1.81459 69.2213 1.93006C69.6526 2.04554 70.022 2.32432 70.2514 2.70738C70.4808 3.09045 70.5521 3.54775 70.4502 3.98246L68.6713 10.6203C68.5734 10.9854 68.3578 11.3081 68.058 11.5383C67.7581 11.7686 67.3907 11.8935 67.0127 11.8939Z" fill="black"/>
</g>
<defs>
<clipPath id="clip0_167_809">
<rect width="110" height="110" fill="white"/>
</clipPath>
</defs>
</svg>
