<svg width="1084" height="290" viewBox="0 0 1084 290" fill="none" xmlns="http://www.w3.org/2000/svg">
<path d="M982.5 288.5L1040.23 289.393L1012.14 238.952L982.5 288.5ZM981.308 131.356C997.623 135.36 1015.36 141.376 1030.94 149.242C1046.6 157.153 1059.62 166.7 1067.05 177.532C1074.27 188.051 1076.32 199.853 1070.1 213.473C1063.68 227.528 1048.25 243.939 1019.15 262.377L1024.5 270.825C1054.23 251.989 1071.59 234.287 1079.2 217.628C1087 200.535 1084.32 185.026 1075.3 171.874C1066.49 159.035 1051.76 148.552 1035.44 140.316C1019.04 132.034 1000.56 125.784 983.692 121.644L981.308 131.356Z" fill="#917800"/>
<path d="M384.786 45.2941L34.7601 0V45.2941L0 87.3529L29.9098 179.559L139.04 220L786.547 179.559L1004 196.544L982.174 127.794L1004 73.6029L859.301 25.8824L384.786 45.2941Z" fill="#54A0B4"/>
<path d="M60.88 152C56.368 152 52.64 151.536 49.696 150.608C46.752 149.68 44.544 148 43.072 145.568C41.632 143.136 40.912 139.68 40.912 135.2V107.744C40.912 103.264 41.632 99.808 43.072 97.376C44.544 94.944 46.752 93.264 49.696 92.336C52.64 91.408 56.368 90.944 60.88 90.944H74.416C77.104 90.944 79.088 91.424 80.368 92.384C81.68 93.344 82.528 94.56 82.912 96.032C83.328 97.504 83.536 99.008 83.536 100.544C83.536 102.912 82.864 104.096 81.52 104.096C80.848 104.096 80.336 103.84 79.984 103.328C79.664 102.784 79.504 102.016 79.504 101.024C79.504 98.944 79.088 97.424 78.256 96.464C77.424 95.472 75.92 94.976 73.744 94.976H60.88C56.976 94.976 53.856 95.264 51.52 95.84C49.184 96.384 47.504 97.568 46.48 99.392C45.456 101.216 44.944 104 44.944 107.744V135.2C44.944 138.784 45.44 141.488 46.432 143.312C47.424 145.136 49.072 146.368 51.376 147.008C53.712 147.648 56.88 147.968 60.88 147.968H73.744C75.92 147.968 77.424 147.488 78.256 146.528C79.088 145.568 79.504 144.032 79.504 141.92C79.504 140.864 79.712 140.096 80.128 139.616C80.576 139.104 81.04 138.848 81.52 138.848C82.064 138.848 82.528 139.072 82.912 139.52C83.328 139.968 83.536 140.608 83.536 141.44C83.536 143.392 83.328 145.168 82.912 146.768C82.528 148.368 81.68 149.648 80.368 150.608C79.088 151.536 77.104 152 74.416 152H60.88ZM98.8255 152C97.6095 152 97.0015 151.008 97.0015 149.024V93.92C97.0015 91.936 97.6095 90.944 98.8255 90.944H115.722C122.314 90.944 127.274 91.968 130.602 94.016C133.93 96.064 135.594 99.808 135.594 105.248C135.594 107.968 135.162 110.288 134.298 112.208C133.434 114.128 132.106 115.648 130.314 116.768C133.45 117.728 135.786 119.424 137.322 121.856C138.858 124.288 139.625 127.808 139.625 132.416V135.2C139.625 139.68 138.906 143.136 137.466 145.568C136.026 148 133.834 149.68 130.89 150.608C127.946 151.536 124.234 152 119.754 152H98.8255ZM101.034 147.968H119.754C121.962 147.968 124.106 147.872 126.186 147.68C128.298 147.488 130.09 146.912 131.562 145.952C133.162 144.992 134.234 143.648 134.778 141.92C135.322 140.16 135.594 137.92 135.594 135.2V132.416C135.594 129.088 135.258 126.672 134.586 125.168C133.914 123.632 132.906 122.432 131.562 121.568C130.122 120.704 128.522 120.176 126.762 119.984C125.034 119.76 122.698 119.648 119.754 119.648H101.034V147.968ZM101.034 115.616H115.722C119.53 115.616 122.586 115.344 124.89 114.8C127.226 114.224 128.922 113.2 129.978 111.728C131.034 110.224 131.562 108.064 131.562 105.248C131.562 102.464 131.034 100.336 129.978 98.864C128.922 97.36 127.226 96.336 124.89 95.792C122.586 95.248 119.53 94.976 115.722 94.976H101.034V115.616ZM148.744 152.672C146.632 152.672 145.576 151.968 145.576 150.56C145.576 149.728 145.864 149.216 146.44 149.024C147.048 148.832 147.688 148.704 148.36 148.64C150.568 148.384 152.264 147.584 153.448 146.24C154.632 144.896 155.432 143.488 155.848 142.016L158.824 131.072C159.336 129.184 160.056 127.552 160.984 126.176C161.912 124.768 163.112 123.52 164.584 122.432C160.808 121.408 157.96 119.632 156.04 117.104C154.12 114.544 153.16 111.232 153.16 107.168C153.16 101.728 154.808 97.664 158.104 94.976C161.432 92.288 166.408 90.944 173.032 90.944H189.256C190.472 90.944 191.08 91.936 191.08 93.92V150.08C191.08 151.808 190.408 152.672 189.064 152.672C187.72 152.672 187.048 151.808 187.048 150.08V123.296H174.568C171.464 123.296 168.92 123.968 166.936 125.312C164.952 126.656 163.592 128.704 162.856 131.456L160.168 141.44C159.272 144.832 157.784 147.552 155.704 149.6C153.624 151.648 151.304 152.672 148.744 152.672ZM173.032 119.264H187.048V94.976H173.032C167.624 94.976 163.624 95.92 161.032 97.808C158.472 99.664 157.192 102.784 157.192 107.168C157.192 111.52 158.472 114.624 161.032 116.48C163.624 118.336 167.624 119.264 173.032 119.264ZM213.588 152C210.1 152 207.7 151.136 206.388 149.408C205.108 147.648 204.468 144.544 204.468 140.096C204.468 138.176 205.14 137.216 206.484 137.216C207.828 137.216 208.5 138.176 208.5 140.096V141.824C208.5 144.064 208.916 145.648 209.748 146.576C210.612 147.504 212.116 147.968 214.26 147.968H231.828C234.004 147.968 235.94 147.296 237.636 145.952C239.332 144.576 240.66 142.88 241.62 140.864C242.58 138.816 243.06 136.768 243.06 134.72C243.06 132.672 242.58 130.72 241.62 128.864C240.66 127.008 239.348 125.488 237.684 124.304C236.052 123.12 234.228 122.528 232.212 122.528H223.956C221.972 122.528 220.98 121.856 220.98 120.512C220.98 119.168 221.972 118.496 223.956 118.496H232.212C234.228 118.496 236.052 117.984 237.684 116.96C239.348 115.936 240.66 114.592 241.62 112.928C242.58 111.232 243.06 109.376 243.06 107.36C243.06 105.344 242.58 103.392 241.62 101.504C240.66 99.584 239.332 98.016 237.636 96.8C235.94 95.584 234.004 94.976 231.828 94.976H214.26C212.116 94.976 210.612 95.44 209.748 96.368C208.916 97.264 208.5 98.848 208.5 101.12V102.848C208.5 104.768 207.828 105.728 206.484 105.728C205.14 105.728 204.468 104.768 204.468 102.848C204.468 98.368 205.108 95.264 206.388 93.536C207.7 91.808 210.1 90.944 213.588 90.944H232.5C235.22 90.944 237.684 91.632 239.892 93.008C242.1 94.384 243.844 96.272 245.124 98.672C246.436 101.04 247.092 103.712 247.092 106.688C247.092 109.76 246.404 112.512 245.028 114.944C243.652 117.376 241.812 119.264 239.508 120.608C241.812 122.08 243.652 124.112 245.028 126.704C246.404 129.296 247.092 132.16 247.092 135.296C247.092 138.272 246.436 141.024 245.124 143.552C243.812 146.08 242.052 148.128 239.844 149.696C237.636 151.232 235.188 152 232.5 152H213.588ZM257.505 153.536C256.833 153.536 256.321 153.36 255.969 153.008C255.649 152.688 255.489 152.224 255.489 151.616C255.489 151.2 255.585 150.752 255.777 150.272L277.377 90.944H281.793L303.393 150.272C303.585 150.752 303.681 151.2 303.681 151.616C303.681 152.224 303.505 152.688 303.153 153.008C302.833 153.36 302.337 153.536 301.665 153.536C300.737 153.536 300.033 152.896 299.553 151.616L292.641 132.416H266.529L259.617 151.616C259.041 152.896 258.337 153.536 257.505 153.536ZM268.065 128.384H291.105L279.489 96.8L268.065 128.384ZM327.955 152.672C327.283 152.672 326.771 152.448 326.419 152C326.099 151.584 325.939 150.944 325.939 150.08V94.976H311.059C310.163 94.976 309.491 94.816 309.043 94.496C308.595 94.144 308.371 93.632 308.371 92.96C308.371 92.288 308.595 91.792 309.043 91.472C309.491 91.12 310.163 90.944 311.059 90.944H344.755C346.547 90.944 347.443 91.616 347.443 92.96C347.443 94.304 346.547 94.976 344.755 94.976H329.971V150.08C329.971 150.944 329.795 151.584 329.443 152C329.123 152.448 328.627 152.672 327.955 152.672ZM359.919 152.672C358.703 152.672 358.095 151.68 358.095 149.696V93.536C358.095 91.808 358.767 90.944 360.111 90.944C361.455 90.944 362.127 91.808 362.127 93.536V107.744H376.815C380.655 107.744 384.063 108.768 387.039 110.816C390.047 112.864 392.399 115.6 394.095 119.024C395.823 122.448 396.687 126.208 396.687 130.304C396.687 134.4 395.839 138.144 394.143 141.536C392.447 144.928 390.095 147.632 387.087 149.648C384.111 151.664 380.687 152.672 376.815 152.672H359.919ZM362.127 148.64H376.815C380.143 148.64 382.991 147.792 385.359 146.096C387.727 144.4 389.535 142.16 390.783 139.376C392.031 136.56 392.655 133.504 392.655 130.208C392.655 126.912 392.031 123.872 390.783 121.088C389.535 118.272 387.727 116.016 385.359 114.32C382.991 112.624 380.143 111.776 376.815 111.776H362.127V148.64ZM427.255 152C422.743 152 419.015 151.536 416.071 150.608C413.127 149.68 410.919 148 409.447 145.568C408.007 143.136 407.287 139.68 407.287 135.2V107.744C407.287 103.264 408.007 99.808 409.447 97.376C410.919 94.944 413.127 93.264 416.071 92.336C419.015 91.408 422.743 90.944 427.255 90.944H440.791C443.479 90.944 445.463 91.424 446.743 92.384C448.055 93.344 448.903 94.56 449.287 96.032C449.703 97.504 449.911 99.008 449.911 100.544C449.911 102.912 449.239 104.096 447.895 104.096C447.223 104.096 446.711 103.84 446.359 103.328C446.039 102.784 445.879 102.016 445.879 101.024C445.879 98.944 445.463 97.424 444.631 96.464C443.799 95.472 442.295 94.976 440.119 94.976H427.255C423.351 94.976 420.231 95.264 417.895 95.84C415.559 96.384 413.879 97.568 412.855 99.392C411.831 101.216 411.319 104 411.319 107.744V135.2C411.319 138.784 411.815 141.488 412.807 143.312C413.799 145.136 415.447 146.368 417.751 147.008C420.087 147.648 423.255 147.968 427.255 147.968H440.119C442.295 147.968 443.799 147.488 444.631 146.528C445.463 145.568 445.879 144.032 445.879 141.92C445.879 140.864 446.087 140.096 446.503 139.616C446.951 139.104 447.415 138.848 447.895 138.848C448.439 138.848 448.903 139.072 449.287 139.52C449.703 139.968 449.911 140.608 449.911 141.44C449.911 143.392 449.703 145.168 449.287 146.768C448.903 148.368 448.055 149.648 446.743 150.608C445.463 151.536 443.479 152 440.791 152H427.255ZM459.057 152.672C456.945 152.672 455.889 151.968 455.889 150.56C455.889 149.728 456.177 149.216 456.753 149.024C457.361 148.832 458.001 148.704 458.673 148.64C460.881 148.384 462.577 147.584 463.761 146.24C464.945 144.896 465.745 143.488 466.161 142.016L469.137 131.072C469.649 129.184 470.369 127.552 471.297 126.176C472.225 124.768 473.425 123.52 474.897 122.432C471.121 121.408 468.273 119.632 466.353 117.104C464.433 114.544 463.473 111.232 463.473 107.168C463.473 101.728 465.121 97.664 468.417 94.976C471.745 92.288 476.721 90.944 483.345 90.944H499.569C500.785 90.944 501.393 91.936 501.393 93.92V150.08C501.393 151.808 500.721 152.672 499.377 152.672C498.033 152.672 497.361 151.808 497.361 150.08V123.296H484.881C481.777 123.296 479.233 123.968 477.249 125.312C475.265 126.656 473.905 128.704 473.169 131.456L470.481 141.44C469.585 144.832 468.097 147.552 466.017 149.6C463.937 151.648 461.617 152.672 459.057 152.672ZM483.345 119.264H497.361V94.976H483.345C477.937 94.976 473.937 95.92 471.345 97.808C468.785 99.664 467.505 102.784 467.505 107.168C467.505 111.52 468.785 114.624 471.345 116.48C473.937 118.336 477.937 119.264 483.345 119.264ZM558.505 152C553.993 152 550.265 151.536 547.321 150.608C544.377 149.68 542.169 148 540.697 145.568C539.257 143.136 538.537 139.68 538.537 135.2V107.744C538.537 103.264 539.257 99.808 540.697 97.376C542.169 94.944 544.377 93.264 547.321 92.336C550.265 91.408 553.993 90.944 558.505 90.944H572.041C574.729 90.944 576.713 91.424 577.993 92.384C579.305 93.344 580.153 94.56 580.537 96.032C580.953 97.504 581.161 99.008 581.161 100.544C581.161 102.912 580.489 104.096 579.145 104.096C578.473 104.096 577.961 103.84 577.609 103.328C577.289 102.784 577.129 102.016 577.129 101.024C577.129 98.944 576.713 97.424 575.881 96.464C575.049 95.472 573.545 94.976 571.369 94.976H558.505C554.601 94.976 551.481 95.264 549.145 95.84C546.809 96.384 545.129 97.568 544.105 99.392C543.081 101.216 542.569 104 542.569 107.744V135.2C542.569 138.784 543.065 141.488 544.057 143.312C545.049 145.136 546.697 146.368 549.001 147.008C551.337 147.648 554.505 147.968 558.505 147.968H571.369C573.545 147.968 575.049 147.488 575.881 146.528C576.713 145.568 577.129 144.032 577.129 141.92C577.129 140.864 577.337 140.096 577.753 139.616C578.201 139.104 578.665 138.848 579.145 138.848C579.689 138.848 580.153 139.072 580.537 139.52C580.953 139.968 581.161 140.608 581.161 141.44C581.161 143.392 580.953 145.168 580.537 146.768C580.153 148.368 579.305 149.648 577.993 150.608C576.713 151.536 574.729 152 572.041 152H558.505ZM614.115 152.864C609.987 152.864 606.323 151.952 603.123 150.128C599.923 148.304 597.395 145.712 595.539 142.352C593.715 138.96 592.803 134.912 592.803 130.208V112.736C592.803 108.032 593.715 104 595.539 100.64C597.395 97.248 599.923 94.64 603.123 92.816C606.323 90.992 609.987 90.08 614.115 90.08C618.243 90.08 621.907 90.992 625.107 92.816C628.339 94.64 630.867 97.248 632.691 100.64C634.515 104 635.427 108.032 635.427 112.736V130.208C635.427 134.816 634.547 138.816 632.787 142.208C631.027 145.6 628.547 148.224 625.347 150.08C622.147 151.936 618.403 152.864 614.115 152.864ZM614.115 148.832C619.491 148.832 623.715 147.184 626.787 143.888C629.859 140.56 631.395 136 631.395 130.208V112.736C631.395 107.008 629.907 102.48 626.931 99.152C623.955 95.792 619.683 94.112 614.115 94.112C608.739 94.112 604.515 95.76 601.443 99.056C598.371 102.352 596.835 106.912 596.835 112.736V130.208C596.835 136 598.371 140.56 601.443 143.888C604.515 147.184 608.739 148.832 614.115 148.832ZM673.893 152.672C672.549 152.672 671.877 151.712 671.877 149.792V93.248C671.877 91.264 672.485 90.272 673.701 90.272C674.661 90.272 675.493 90.816 676.197 91.904L694.149 119.168L712.197 91.904C712.901 90.816 713.701 90.272 714.597 90.272C715.877 90.272 716.517 91.264 716.517 93.248V149.792C716.517 151.712 715.845 152.672 714.5 152.672C713.157 152.672 712.485 151.712 712.485 149.792V98.528L695.829 123.968C695.509 124.48 695.221 124.816 694.965 124.976C694.741 125.136 694.501 125.216 694.245 125.216C694.021 125.216 693.765 125.136 693.477 124.976C693.221 124.816 692.917 124.48 692.565 123.968L675.909 98.528V149.792C675.909 151.712 675.237 152.672 673.893 152.672ZM734.643 152.672C733.299 152.672 732.627 151.712 732.627 149.792V93.248C732.627 91.264 733.235 90.272 734.451 90.272C735.923 90.272 736.659 91.264 736.659 93.248V117.056H771.219V93.248C771.219 91.264 771.891 90.272 773.235 90.272C774.579 90.272 775.25 91.264 775.25 93.248V149.792C775.25 151.712 774.579 152.672 773.235 152.672C771.891 152.672 771.219 151.712 771.219 149.792V121.088H736.659V149.792C736.659 151.712 735.987 152.672 734.643 152.672ZM810.896 152.864C806.768 152.864 803.104 151.952 799.904 150.128C796.704 148.304 794.176 145.712 792.32 142.352C790.496 138.96 789.584 134.912 789.584 130.208V112.736C789.584 108.032 790.496 104 792.32 100.64C794.176 97.248 796.704 94.64 799.904 92.816C803.104 90.992 806.768 90.08 810.896 90.08C815.024 90.08 818.688 90.992 821.888 92.816C825.12 94.64 827.648 97.248 829.472 100.64C831.296 104 832.208 108.032 832.208 112.736V130.208C832.208 134.816 831.328 138.816 829.568 142.208C827.808 145.6 825.328 148.224 822.128 150.08C818.928 151.936 815.184 152.864 810.896 152.864ZM810.896 148.832C816.272 148.832 820.496 147.184 823.568 143.888C826.64 140.56 828.176 136 828.176 130.208V112.736C828.176 107.008 826.688 102.48 823.712 99.152C820.736 95.792 816.464 94.112 810.896 94.112C805.52 94.112 801.296 95.76 798.224 99.056C795.152 102.352 793.616 106.912 793.616 112.736V130.208C793.616 136 795.152 140.56 798.224 143.888C801.296 147.184 805.52 148.832 810.896 148.832ZM848.453 152.672C847.173 152.672 846.533 151.712 846.533 149.792V93.248C846.533 91.264 847.205 90.272 848.549 90.272C849.893 90.272 850.565 91.264 850.565 93.248V143.936L884.837 91.904C885.541 90.816 886.373 90.272 887.333 90.272C888.549 90.272 889.157 91.264 889.157 93.248V149.792C889.157 151.712 888.485 152.672 887.141 152.672C885.797 152.672 885.125 151.712 885.125 149.792V98.528L849.989 152C849.861 152.224 849.669 152.384 849.413 152.48C849.157 152.608 848.837 152.672 848.453 152.672ZM862.181 86.336C859.077 86.336 856.917 85.552 855.701 83.984C854.517 82.416 853.925 79.616 853.925 75.584V73.472H857.957V77.12C857.957 79.072 858.293 80.432 858.965 81.2C859.669 81.936 860.997 82.304 862.949 82.304H872.741C874.725 82.304 876.037 81.936 876.677 81.2C877.317 80.432 877.637 79.072 877.637 77.12V73.472H881.669V75.584C881.669 79.648 881.093 82.464 879.941 84.032C878.821 85.568 876.645 86.336 873.413 86.336H862.181Z" fill="black"/>
<path d="M386.738 58.7353L44.033 12V58.7353L10 102.132L39.2842 197.272L146.132 239L780.096 197.272L993 214.798L971.63 143.86L993 87.9449L851.328 38.7059L386.738 58.7353Z" stroke="black" stroke-width="5" stroke-dasharray="10 10"/>
</svg>
