<svg width="150" height="150" viewBox="0 0 150 150" fill="none" xmlns="http://www.w3.org/2000/svg">
<rect width="150" height="150" rx="75" fill="#54A0B4"/>
<path fill-rule="evenodd" clip-rule="evenodd" d="M33.9508 74.2087C55.8149 64.6829 70.3943 58.4029 77.6892 55.3687C98.5175 46.7055 102.845 45.2006 105.666 45.1509C106.287 45.14 107.674 45.2938 108.573 46.0229C109.331 46.6386 109.54 47.4703 109.64 48.054C109.74 48.6377 109.864 49.9675 109.765 51.0065C108.637 62.8657 103.753 91.645 101.268 104.928C100.217 110.548 98.1468 112.432 96.1427 112.617C91.7873 113.018 88.48 109.739 84.2616 106.973C77.6606 102.646 73.9315 99.9527 67.5241 95.7303C60.1192 90.8507 64.9195 88.1687 69.1395 83.7856C70.2439 82.6386 89.4338 65.1838 89.8053 63.6004C89.8517 63.4024 89.8948 62.6642 89.4563 62.2744C89.0178 61.8847 88.3705 62.0179 87.9035 62.124C87.2414 62.2742 76.6963 69.2442 56.268 83.0338C53.2748 85.0891 50.5637 86.0906 48.1346 86.0381C45.4567 85.9802 40.3055 84.524 36.4761 83.2792C31.7792 81.7524 28.0462 80.9452 28.3713 78.3523C28.5406 77.0017 30.4004 75.6205 33.9508 74.2087Z" fill="white"/>
</svg>
