<svg width="1030" height="38" viewBox="0 0 1030 38" fill="none" xmlns="http://www.w3.org/2000/svg">
<path d="M1028.77 20.7679C1029.74 19.7915 1029.74 18.2086 1028.77 17.2323L1012.86 1.32242C1011.88 0.346108 1010.3 0.346108 1009.32 1.32242C1008.35 2.29873 1008.35 3.88164 1009.32 4.85795L1023.46 19.0001L1009.32 33.1422C1008.35 34.1185 1008.35 35.7014 1009.32 36.6778C1010.3 37.6541 1011.88 37.6541 1012.86 36.6778L1028.77 20.7679ZM-2.18557e-07 21.5L5.03431 21.5L5.03431 16.5L2.18557e-07 16.5L-2.18557e-07 21.5ZM15.1029 21.5L25.1716 21.5L25.1716 16.5L15.1029 16.5L15.1029 21.5ZM35.2402 21.5L45.3088 21.5L45.3088 16.5L35.2402 16.5L35.2402 21.5ZM55.3774 21.5L65.4461 21.5L65.4461 16.5L55.3774 16.5L55.3774 21.5ZM75.5147 21.5L85.5833 21.5L85.5833 16.5L75.5147 16.5L75.5147 21.5ZM95.652 21.5L105.721 21.5L105.721 16.5L95.652 16.5L95.652 21.5ZM115.789 21.5L125.858 21.5L125.858 16.5L115.789 16.5L115.789 21.5ZM135.926 21.5L145.995 21.5L145.995 16.5L135.926 16.5L135.926 21.5ZM156.064 21.5L166.132 21.5L166.132 16.5L156.064 16.5L156.064 21.5ZM176.201 21.5L186.27 21.5L186.27 16.5L176.201 16.5L176.201 21.5ZM196.338 21.5L206.407 21.5L206.407 16.5L196.338 16.5L196.338 21.5ZM216.476 21.5L226.544 21.5L226.544 16.5L216.476 16.5L216.476 21.5ZM236.613 21.5L246.681 21.5L246.681 16.5L236.613 16.5L236.613 21.5ZM256.75 21.5L266.819 21.5L266.819 16.5L256.75 16.5L256.75 21.5ZM276.887 21.5L286.956 21.5L286.956 16.5L276.887 16.5L276.887 21.5ZM297.025 21.5L307.093 21.5L307.093 16.5L297.025 16.5L297.025 21.5ZM317.162 21.5L327.231 21.5L327.231 16.5L317.162 16.5L317.162 21.5ZM337.299 21.5L347.368 21.5L347.368 16.5L337.299 16.5L337.299 21.5ZM357.436 21.5L367.505 21.5L367.505 16.5L357.436 16.5L357.436 21.5ZM377.574 21.5L387.642 21.5L387.642 16.5L377.574 16.5L377.574 21.5ZM397.711 21.5L407.78 21.5L407.78 16.5L397.711 16.5L397.711 21.5ZM417.848 21.5L427.917 21.5L427.917 16.5L417.848 16.5L417.848 21.5ZM437.985 21.5L448.054 21.5L448.054 16.5L437.985 16.5L437.985 21.5ZM458.123 21.5L468.191 21.5L468.191 16.5L458.123 16.5L458.123 21.5ZM478.26 21.5L488.329 21.5L488.329 16.5L478.26 16.5L478.26 21.5ZM498.397 21.5L508.466 21.5L508.466 16.5L498.397 16.5L498.397 21.5ZM518.535 21.5L528.603 21.5L528.603 16.5L518.535 16.5L518.535 21.5ZM538.672 21.5L548.74 21.5L548.74 16.5L538.672 16.5L538.672 21.5ZM558.809 21.5L568.878 21.5L568.878 16.5L558.809 16.5L558.809 21.5ZM578.946 21.5001L589.015 21.5001L589.015 16.5001L578.946 16.5001L578.946 21.5001ZM599.083 21.5001L609.152 21.5001L609.152 16.5001L599.083 16.5001L599.083 21.5001ZM619.221 21.5001L629.289 21.5001L629.289 16.5001L619.221 16.5001L619.221 21.5001ZM639.358 21.5001L649.426 21.5001L649.426 16.5001L639.358 16.5001L639.358 21.5001ZM659.495 21.5001L669.564 21.5001L669.564 16.5001L659.495 16.5001L659.495 21.5001ZM679.632 21.5001L689.701 21.5001L689.701 16.5001L679.632 16.5001L679.632 21.5001ZM699.769 21.5001L709.838 21.5001L709.838 16.5001L699.769 16.5001L699.769 21.5001ZM719.907 21.5001L729.975 21.5001L729.975 16.5001L719.907 16.5001L719.907 21.5001ZM740.044 21.5001L750.112 21.5001L750.112 16.5001L740.044 16.5001L740.044 21.5001ZM760.181 21.5001L770.25 21.5001L770.25 16.5001L760.181 16.5001L760.181 21.5001ZM780.318 21.5001L790.387 21.5001L790.387 16.5001L780.318 16.5001L780.318 21.5001ZM800.455 21.5001L810.524 21.5001L810.524 16.5001L800.455 16.5001L800.455 21.5001ZM820.593 21.5001L830.661 21.5001L830.661 16.5001L820.593 16.5001L820.593 21.5001ZM840.73 21.5001L850.798 21.5001L850.798 16.5001L840.73 16.5001L840.73 21.5001ZM860.867 21.5001L870.936 21.5001L870.936 16.5001L860.867 16.5001L860.867 21.5001ZM881.004 21.5001L891.073 21.5001L891.073 16.5001L881.004 16.5001L881.004 21.5001ZM901.142 21.5001L911.21 21.5001L911.21 16.5001L901.142 16.5001L901.142 21.5001ZM921.279 21.5001L931.347 21.5001L931.347 16.5001L921.279 16.5001L921.279 21.5001ZM941.416 21.5001L951.484 21.5001L951.484 16.5001L941.416 16.5001L941.416 21.5001ZM961.553 21.5001L971.622 21.5001L971.622 16.5001L961.553 16.5001L961.553 21.5001ZM981.69 21.5001L991.759 21.5001L991.759 16.5001L981.69 16.5001L981.69 21.5001ZM1001.83 21.5001L1011.9 21.5001L1011.9 16.5001L1001.83 16.5001L1001.83 21.5001ZM1021.96 21.5001L1027 21.5001L1027 16.5001L1021.96 16.5001L1021.96 21.5001Z" fill="#323232"/>
</svg>
