<svg width="287" height="289" viewBox="0 0 287 289" fill="none" xmlns="http://www.w3.org/2000/svg">
<path d="M113.397 132.931L113.043 131.473L112.907 131.506L112.779 131.564L113.397 132.931ZM286.492 276.201C286.944 275.507 286.749 274.577 286.055 274.125L274.747 266.75C274.053 266.298 273.124 266.493 272.671 267.187C272.219 267.881 272.414 268.81 273.108 269.263L283.159 275.818L276.604 285.869C276.152 286.563 276.347 287.493 277.041 287.945C277.735 288.398 278.664 288.202 279.117 287.508L286.492 276.201ZM284.926 273.913C283.275 274.261 281.633 274.597 279.999 274.923L280.586 277.865C282.23 277.537 283.883 277.199 285.544 276.849L284.926 273.913ZM270.188 276.766C266.869 277.351 263.586 277.89 260.339 278.383L260.789 281.349C264.06 280.852 267.367 280.31 270.708 279.721L270.188 276.766ZM250.454 279.758C247.111 280.179 243.806 280.551 240.539 280.875L240.834 283.86C244.129 283.534 247.46 283.159 250.83 282.734L250.454 279.758ZM230.599 281.717C227.239 281.954 223.92 282.137 220.642 282.268L220.761 285.265C224.071 285.133 227.42 284.948 230.809 284.71L230.599 281.717ZM210.677 282.508C207.313 282.534 203.992 282.504 200.715 282.419L200.637 285.418C203.949 285.504 207.303 285.534 210.7 285.507L210.677 282.508ZM190.77 281.983C187.415 281.775 184.106 281.507 180.842 281.18L180.544 284.166C183.846 284.496 187.192 284.767 190.585 284.977L190.77 281.983ZM170.945 279.993C167.62 279.527 164.344 278.998 161.114 278.408L160.575 281.359C163.845 281.957 167.163 282.492 170.528 282.964L170.945 279.993ZM151.37 276.411C148.105 275.668 144.889 274.86 141.721 273.989L140.926 276.882C144.137 277.764 147.396 278.583 150.705 279.336L151.37 276.411ZM132.184 271.133C129.007 270.102 125.879 269.005 122.799 267.845L121.742 270.652C124.865 271.829 128.037 272.941 131.258 273.986L132.184 271.133ZM113.577 264.122C110.515 262.801 107.502 261.416 104.535 259.968L103.219 262.664C106.228 264.133 109.284 265.538 112.389 266.877L113.577 264.122ZM95.7023 255.399C92.7844 253.803 89.9125 252.144 87.085 250.424L85.5261 252.988C88.3923 254.731 91.3038 256.413 94.2624 258.031L95.7023 255.399ZM78.7013 245.065C75.9451 243.215 73.2318 241.306 70.5595 239.341L68.7818 241.757C71.4883 243.748 74.2369 245.682 77.0296 247.556L78.7013 245.065ZM62.6651 233.275C60.078 231.202 57.53 229.074 55.0191 226.893L53.0519 229.158C55.5919 231.364 58.1702 233.517 60.7888 235.616L62.6651 233.275ZM47.6236 220.22C46.4121 219.086 45.2094 217.939 44.0152 216.78L41.9259 218.933C43.1328 220.104 44.3484 221.264 45.5731 222.41L47.6236 220.22ZM44.0152 216.78C42.8651 215.664 41.7657 214.48 40.7161 213.23L38.419 215.16C39.5316 216.484 40.7002 217.744 41.9259 218.933L44.0152 216.78ZM35.1367 205.201C33.5531 202.45 32.1365 199.503 30.8833 196.385L28.0997 197.504C29.4005 200.74 30.8771 203.814 32.5368 206.697L35.1367 205.201ZM27.747 187.041C26.8886 183.935 26.1625 180.709 25.5656 177.384L22.6128 177.914C23.2248 181.323 23.9707 184.639 24.8554 187.84L27.747 187.041ZM24.2009 167.551C23.8744 164.307 23.6562 160.995 23.5434 157.631L20.5451 157.731C20.6601 161.159 20.8825 164.538 21.216 167.851L24.2009 167.551ZM23.5102 147.681C23.5951 144.396 23.7727 141.077 24.0403 137.74L21.0499 137.5C20.7781 140.89 20.5975 144.262 20.5112 147.604L23.5102 147.681ZM25.0907 127.837C25.5223 124.557 26.0371 121.272 26.6323 117.996L23.6806 117.459C23.0767 120.784 22.5544 124.117 22.1163 127.445L25.0907 127.837ZM28.6484 108.239C29.3999 104.998 30.2288 101.778 31.1326 98.5916L28.2464 97.773C27.3293 101.006 26.4883 104.273 25.7259 107.562L28.6484 108.239ZM34.0881 89.0806C35.1608 85.9134 36.3084 82.7954 37.5279 79.7398L34.7416 78.6277C33.5018 81.734 32.3359 84.9021 31.2466 88.1182L34.0881 89.0806ZM41.4751 70.6122C42.8983 67.5694 44.3964 64.6103 45.966 61.7503L43.336 60.3069C41.7339 63.2262 40.2068 66.2428 38.7576 69.3411L41.4751 70.6122ZM51.0563 53.2187C52.8958 50.3853 54.8129 47.6853 56.8031 45.1368L54.4387 43.2903C52.3912 45.9121 50.4238 48.6837 48.5401 51.585L51.0563 53.2187ZM63.2746 37.6673C65.6159 35.2454 68.0377 33.03 70.534 31.0438L68.6661 28.6962C66.0594 30.7702 63.5417 33.0747 61.1177 35.5822L63.2746 37.6673ZM78.6157 25.5838C81.5076 23.965 84.4805 22.6488 87.5278 21.6632L86.6046 18.8088C83.3561 19.8594 80.2023 21.2577 77.1503 22.9661L78.6157 25.5838ZM97.0006 19.716C100.153 19.4316 103.381 19.4963 106.679 19.9419L107.081 16.9689C103.561 16.4934 100.108 16.4235 96.7311 16.7281L97.0006 19.716ZM116.082 22.2062C119.003 23.215 121.977 24.5238 125 26.1548L126.425 23.5146C123.268 21.8115 120.146 20.4357 117.062 19.3705L116.082 22.2062ZM133.311 31.3817C134.648 32.3412 135.992 33.3639 137.345 34.4514L139.225 32.1135C137.831 30.993 136.443 29.9372 135.061 28.9448L133.311 31.3817ZM137.345 34.4514C138.732 35.5665 140.069 36.6718 141.357 37.7672L143.3 35.4817C141.99 34.3679 140.632 33.2452 139.225 32.1135L137.345 34.4514ZM148.901 44.5958C151.519 47.1326 153.868 49.611 155.965 52.031L158.232 50.0663C156.073 47.5748 153.663 45.0332 150.988 42.4413L148.901 44.5958ZM162.15 60.0366C164.197 63.063 165.833 65.983 167.1 68.7966L169.836 67.5648C168.491 64.5784 166.768 61.5089 164.635 58.3559L162.15 60.0366ZM170.107 78.2825C170.72 81.7238 170.76 84.9873 170.319 88.0799L173.288 88.5041C173.776 85.0879 173.728 81.5034 173.061 77.7562L170.107 78.2825ZM167.357 97.4323C165.908 100.328 164.017 103.063 161.768 105.637L164.027 107.611C166.419 104.872 168.462 101.928 170.039 98.7747L167.357 97.4323ZM154.462 112.537C151.87 114.596 149.061 116.512 146.106 118.283L147.649 120.856C150.701 119.026 153.621 117.037 156.328 114.885L154.462 112.537ZM137.111 123.054C134.012 124.509 130.849 125.822 127.693 126.992L128.736 129.805C131.964 128.608 135.205 127.263 138.386 125.769L137.111 123.054ZM117.97 130.173C116.298 130.649 114.652 131.083 113.043 131.473L113.751 134.389C115.398 133.989 117.083 133.545 118.792 133.058L117.97 130.173ZM112.779 131.564C111.325 132.221 109.795 132.834 108.196 133.39L109.182 136.223C110.865 135.638 112.479 134.992 114.015 134.298L112.779 131.564ZM98.5957 135.84C95.4356 136.37 92.126 136.662 88.7149 136.656L88.7098 139.656C92.2952 139.662 95.7724 139.355 99.0914 138.799L98.5957 135.84ZM78.8617 135.799C75.7056 135.249 72.5039 134.42 69.2897 133.269L68.2783 136.094C71.658 137.304 75.026 138.176 78.347 138.754L78.8617 135.799ZM60.2642 129.159C57.4878 127.61 54.7224 125.788 51.9897 123.665L50.1492 126.035C53 128.249 55.8919 130.155 58.8023 131.779L60.2642 129.159ZM44.5712 117.043C42.3433 114.777 40.1515 112.279 38.0092 109.533L35.6436 111.378C37.8539 114.212 40.1209 116.796 42.432 119.146L44.5712 117.043ZM32.23 101.301C30.5216 98.6046 28.8565 95.7218 27.2424 92.6428L24.5854 94.0358C26.2358 97.1841 27.9417 100.138 29.6958 102.907L32.23 101.301ZM22.8896 83.5618C21.5867 80.5885 20.3272 77.4629 19.1163 74.1785L16.3015 75.2164C17.5323 78.5546 18.814 81.7357 20.1418 84.7659L22.8896 83.5618ZM15.8792 64.6356C14.9111 61.5288 13.983 58.2984 13.0981 54.9403L10.1971 55.7047C11.0929 59.1042 12.0332 62.3774 13.015 65.5281L15.8792 64.6356ZM10.7175 45.1161C10.0055 41.9124 9.3302 38.6047 8.69386 35.1901L5.74462 35.7397C6.38707 39.187 7.06925 42.5285 7.78893 45.7669L10.7175 45.1161ZM6.99309 25.2012C6.49144 21.9617 6.02271 18.6343 5.5886 15.2172L2.61253 15.5953C3.04999 19.0387 3.52248 22.393 4.02844 25.6604L6.99309 25.2012ZM4.4414 5.1842C4.26883 3.49423 4.1043 1.78395 3.94795 0.053137L0.960104 0.323026C1.11751 2.06532 1.28316 3.7872 1.4569 5.48892L4.4414 5.1842Z" fill="black"/>
</svg>
