<svg width="1502" height="706" viewBox="0 0 1502 706" fill="none" xmlns="http://www.w3.org/2000/svg">
<path d="M32.5 196.5C0 234.667 -41.6284 393.892 133.572 463.492C308.772 533.092 601.238 304.158 725.572 180.991C613.405 297.658 436.772 557.892 627.572 665.492C818.372 773.092 338.072 308.158 108.572 90.9914C327.072 13.3248 844.872 -83.9086 1168.07 148.491C1238.94 199.447 1361.22 295.149 1400.57 323.26M1456.07 359.991C1504.22 395.515 1540.7 423.358 1400.57 323.26M1456.07 359.991L1400.57 323.26M1456.07 359.991C1361.07 493.658 1092.17 747.992 776.572 695.992" stroke="#917800" stroke-width="5"/>
</svg>
